<?xml version="1.0" encoding="UTF-8"?>
<!DOCTYPE svg PUBLIC "-//W3C//DTD SVG 1.1//EN" "http://www.w3.org/Graphics/SVG/1.1/DTD/svg11.dtd">
<svg xmlns="http://www.w3.org/2000/svg" version="1.1" width="320px" height="320px" style="shape-rendering:geometricPrecision; text-rendering:geometricPrecision; image-rendering:optimizeQuality; fill-rule:evenodd; clip-rule:evenodd" xmlns:xlink="http://www.w3.org/1999/xlink">
<g><path style="opacity:0.134" fill="#000000" d="M 28.5,61.5 C 37.9942,60.8952 47.3275,61.7286 56.5,64C 137.984,92.357 219.317,120.69 300.5,149C 305.369,151.251 307.869,155.085 308,160.5C 308.961,167.336 308.295,174.003 306,180.5C 304.891,182.815 303.057,184.315 300.5,185C 218.092,213.469 135.758,242.136 53.5,271C 44.1627,272.949 34.8294,272.949 25.5,271C 22.732,269.238 21.232,266.738 21,263.5C 20.1994,256.111 20.5328,248.777 22,241.5C 32.4732,230.699 41.8065,219.032 50,206.5C 57.4839,193.543 61.6505,179.543 62.5,164.5C 61.8215,150.828 57.9882,138.161 51,126.5C 42.399,114.234 32.7323,102.901 22,92.5C 19.7146,83.0331 20.0479,73.6998 23,64.5C 25.0581,63.7709 26.8914,62.7709 28.5,61.5 Z"/></g>
<g><path style="opacity:1" fill="#421a0a" d="M 44.5,76.5 C 42.8564,76.8102 41.8564,77.8102 41.5,79.5C 38.4179,77.9252 35.7512,75.7585 33.5,73C 37.3962,73.4655 41.0629,74.6322 44.5,76.5 Z"/></g>
<g><path style="opacity:0.996" fill="#54210a" d="M 44.5,76.5 C 55.1345,79.5985 65.4678,83.2651 75.5,87.5C 71.8333,86.8333 68.1667,86.1667 64.5,85.5C 58.9689,83.8578 53.4689,81.8578 48,79.5C 46.2942,80.3079 45.4609,81.6412 45.5,83.5C 43.8333,82.5 42.5,81.1667 41.5,79.5C 41.8564,77.8102 42.8564,76.8102 44.5,76.5 Z"/></g>
<g><path style="opacity:1" fill="#722c0e" d="M 64.5,85.5 C 61.7938,85.4249 59.1272,85.0916 56.5,84.5C 56.1667,84.5 55.8333,84.5 55.5,84.5C 54.5729,82.5241 53.2395,82.1908 51.5,83.5C 52.0983,84.7946 52.5983,86.1279 53,87.5C 55.6897,87.7672 58.1897,89.1005 60.5,91.5C 59.8658,95.2428 61.1991,98.2428 64.5,100.5C 63.6136,101.776 62.6136,101.776 61.5,100.5C 59.6602,95.784 56.6602,92.1174 52.5,89.5C 51.7542,88.2638 51.4208,86.9305 51.5,85.5C 49.7839,85.3713 48.1172,85.038 46.5,84.5C 45.8333,84.5 45.5,84.1667 45.5,83.5C 45.4609,81.6412 46.2942,80.3079 48,79.5C 53.4689,81.8578 58.9689,83.8578 64.5,85.5 Z"/></g>
<g><path style="opacity:1" fill="#a25b2b" d="M 56.5,84.5 C 59.1272,85.0916 61.7938,85.4249 64.5,85.5C 66.6198,87.4952 69.1198,89.1619 72,90.5C 73.0617,89.9032 74.2284,89.5698 75.5,89.5C 81.327,91.1099 86.6603,93.6099 91.5,97C 97.243,98.0575 102.91,99.3909 108.5,101C 109.973,101.71 110.64,102.876 110.5,104.5C 96.7156,100.468 83.0489,95.968 69.5,91C 64.8268,89.3301 60.4934,87.1634 56.5,84.5 Z"/></g>
<g><path style="opacity:0.996" fill="#541e09" d="M 46.5,84.5 C 48.1172,85.038 49.7839,85.3713 51.5,85.5C 51.4208,86.9305 51.7542,88.2638 52.5,89.5C 56.6602,92.1174 59.6602,95.784 61.5,100.5C 62.6136,101.776 63.6136,101.776 64.5,100.5C 64.4346,100.062 64.6012,99.7284 65,99.5C 65.3333,100.167 65.6667,100.833 66,101.5C 66.2976,107.07 67.4642,112.404 69.5,117.5C 63.0779,105.664 55.4113,94.6642 46.5,84.5 Z"/></g>
<g><path style="opacity:1" fill="#ac6633" d="M 61.5,90.5 C 69.5734,93.8765 77.5734,97.2099 85.5,100.5C 83.8333,100.5 82.1667,100.5 80.5,100.5C 80.1667,99.5 79.5,98.8333 78.5,98.5C 76.4214,98.0293 74.4214,97.3627 72.5,96.5C 67.9911,95.7512 64.3245,93.7512 61.5,90.5 Z"/></g>
<g><path style="opacity:1" fill="#e8cfbc" d="M 55.5,84.5 C 55.8333,84.5 56.1667,84.5 56.5,84.5C 60.4934,87.1634 64.8268,89.3301 69.5,91C 83.0489,95.968 96.7156,100.468 110.5,104.5C 113.084,106.472 116.084,107.472 119.5,107.5C 124.629,109.793 129.962,111.793 135.5,113.5C 136.609,113.557 137.609,113.89 138.5,114.5C 142.956,116.542 147.623,118.209 152.5,119.5C 152.833,119.5 153.167,119.5 153.5,119.5C 157.576,121.612 161.909,123.279 166.5,124.5C 166.833,124.5 167.167,124.5 167.5,124.5C 169.649,125.736 171.982,126.736 174.5,127.5C 182.752,130.462 191.086,133.128 199.5,135.5C 209.955,139.541 220.621,143.208 231.5,146.5C 239.308,149.794 247.308,152.794 255.5,155.5C 255.833,155.5 256.167,155.5 256.5,155.5C 258.019,156.41 259.685,157.243 261.5,158C 260.167,158.167 258.833,158.333 257.5,158.5C 253.507,157.506 249.507,156.506 245.5,155.5C 244.609,154.89 243.609,154.557 242.5,154.5C 239.919,153.512 237.252,152.512 234.5,151.5C 233.609,150.89 232.609,150.557 231.5,150.5C 231.167,150.5 230.833,150.5 230.5,150.5C 229.833,150.167 229.167,149.833 228.5,149.5C 222.121,147.321 215.788,144.987 209.5,142.5C 204.891,140.964 200.224,139.63 195.5,138.5C 192.912,136.408 189.912,135.075 186.5,134.5C 185.833,134.5 185.167,134.5 184.5,134.5C 179.319,132.325 173.986,130.325 168.5,128.5C 168.167,128.5 167.833,128.5 167.5,128.5C 167.167,128.5 166.833,128.5 166.5,128.5C 165.22,127.069 163.553,126.402 161.5,126.5C 154.869,123.367 147.869,121.033 140.5,119.5C 140.5,118.833 140.167,118.5 139.5,118.5C 137.401,117.388 135.067,116.721 132.5,116.5C 128.784,114.595 124.784,113.261 120.5,112.5C 120.5,111.833 120.167,111.5 119.5,111.5C 115.426,109.397 111.093,108.064 106.5,107.5C 103.682,105.928 100.682,104.594 97.5,103.5C 93.4842,102.488 89.4842,101.488 85.5,100.5C 77.5734,97.2099 69.5734,93.8765 61.5,90.5C 59.2359,88.6863 56.9025,86.853 54.5,85C 54.7284,84.6012 55.0618,84.4346 55.5,84.5 Z"/></g>
<g><path style="opacity:1" fill="#863c16" d="M 55.5,84.5 C 55.0618,84.4346 54.7284,84.6012 54.5,85C 56.9025,86.853 59.2359,88.6863 61.5,90.5C 64.3245,93.7512 67.9911,95.7512 72.5,96.5C 72.5,99.8333 72.5,103.167 72.5,106.5C 72.1254,110.442 71.1254,114.109 69.5,117.5C 67.4642,112.404 66.2976,107.07 66,101.5C 65.6667,100.833 65.3333,100.167 65,99.5C 64.6012,99.7284 64.4346,100.062 64.5,100.5C 61.1991,98.2428 59.8658,95.2428 60.5,91.5C 58.1897,89.1005 55.6897,87.7672 53,87.5C 52.5983,86.1279 52.0983,84.7946 51.5,83.5C 53.2395,82.1908 54.5729,82.5241 55.5,84.5 Z"/></g>
<g><path style="opacity:1" fill="#723412" d="M 64.5,85.5 C 68.1667,86.1667 71.8333,86.8333 75.5,87.5C 95.9428,94.2234 116.276,101.223 136.5,108.5C 136.19,113.452 137.19,113.786 139.5,109.5C 144.144,110.599 148.478,112.266 152.5,114.5C 152.5,115.5 152.5,116.5 152.5,117.5C 148.79,117.126 145.79,115.459 143.5,112.5C 142.5,113.833 141.5,113.833 140.5,112.5C 139.818,113.243 139.151,113.909 138.5,114.5C 137.609,113.89 136.609,113.557 135.5,113.5C 135.883,110.538 134.883,109.538 132.5,110.5C 131.749,109.624 131.249,108.624 131,107.5C 130,110.167 129,110.167 128,107.5C 125.25,108.291 122.417,108.291 119.5,107.5C 116.855,105.69 113.855,104.69 110.5,104.5C 110.64,102.876 109.973,101.71 108.5,101C 102.91,99.3909 97.243,98.0575 91.5,97C 86.6603,93.6099 81.327,91.1099 75.5,89.5C 74.2284,89.5698 73.0617,89.9032 72,90.5C 69.1198,89.1619 66.6198,87.4952 64.5,85.5 Z"/></g>
<g><path style="opacity:1" fill="#b16d3d" d="M 110.5,104.5 C 113.855,104.69 116.855,105.69 119.5,107.5C 116.084,107.472 113.084,106.472 110.5,104.5 Z"/></g>
<g><path style="opacity:1" fill="#bb7741" d="M 97.5,103.5 C 100.682,104.594 103.682,105.928 106.5,107.5C 103.551,106.987 100.718,106.987 98,107.5C 97.51,106.207 97.3433,104.873 97.5,103.5 Z"/></g>
<g><path style="opacity:1" fill="#974719" d="M 80.5,100.5 C 82.1667,100.5 83.8333,100.5 85.5,100.5C 89.4842,101.488 93.4842,102.488 97.5,103.5C 97.3433,104.873 97.51,106.207 98,107.5C 100.718,106.987 103.551,106.987 106.5,107.5C 111.093,108.064 115.426,109.397 119.5,111.5C 119.5,112.167 119.167,112.5 118.5,112.5C 116.784,112.371 115.117,112.038 113.5,111.5C 112.501,126.088 112.168,141.422 112.5,157.5C 111.252,158.334 110.585,159.667 110.5,161.5C 110.966,164.492 111.299,167.492 111.5,170.5C 108.234,170.567 106.734,168.901 107,165.5C 106.611,156.155 106.111,146.821 105.5,137.5C 105.547,128.222 105.547,119.222 105.5,110.5C 104.502,119.475 104.168,128.475 104.5,137.5C 104.5,143.5 104.5,149.5 104.5,155.5C 104.66,157.199 104.494,158.866 104,160.5C 102.623,156.735 101.623,157.068 101,161.5C 100.667,159.833 100.333,158.167 100,156.5C 99,159.833 98,163.167 97,166.5C 96.9977,163.949 96.1644,161.949 94.5,160.5C 93.8407,157.592 93.0074,157.258 92,159.5C 91.0565,158.737 90.5565,157.737 90.5,156.5C 91.0639,154.181 91.5639,151.847 92,149.5C 92.6667,148.167 93.3333,148.167 94,149.5C 94.6781,145.779 94.5114,142.112 93.5,138.5C 94.2174,134.011 94.2174,129.344 93.5,124.5C 94.538,119.815 95.538,114.981 96.5,110C 96.204,108.112 95.704,106.278 95,104.5C 94.4666,106.939 93.3,107.605 91.5,106.5C 90.5655,107.568 90.2322,108.901 90.5,110.5C 88.5864,113.684 87.9197,117.351 88.5,121.5C 88.5,123.5 88.5,125.5 88.5,127.5C 86.9188,132.501 85.9188,137.168 85.5,141.5C 85.6661,135.824 85.4994,130.157 85,124.5C 84.7266,122.899 84.2266,121.399 83.5,120C 83.9574,119.586 84.2907,119.086 84.5,118.5C 83.0285,118.594 81.8618,117.594 81,115.5C 80.6174,116.056 80.1174,116.389 79.5,116.5C 79.8333,111.167 80.1667,105.833 80.5,100.5 Z"/></g>
<g><path style="opacity:1" fill="#712c0e" d="M 93.5,124.5 C 93.2627,120.278 93.596,116.111 94.5,112C 92.8368,110.505 91.8368,108.672 91.5,106.5C 93.3,107.605 94.4666,106.939 95,104.5C 95.704,106.278 96.204,108.112 96.5,110C 95.538,114.981 94.538,119.815 93.5,124.5 Z"/></g>
<g><path style="opacity:1" fill="#311206" d="M 136.5,108.5 C 137.791,108.263 138.791,108.596 139.5,109.5C 137.19,113.786 136.19,113.452 136.5,108.5 Z"/></g>
<g><path style="opacity:1" fill="#a35322" d="M 119.5,107.5 C 122.417,108.291 125.25,108.291 128,107.5C 129,110.167 130,110.167 131,107.5C 131.249,108.624 131.749,109.624 132.5,110.5C 134.883,109.538 135.883,110.538 135.5,113.5C 129.962,111.793 124.629,109.793 119.5,107.5 Z"/></g>
<g><path style="opacity:1" fill="#a04c1a" d="M 120.5,112.5 C 124.784,113.261 128.784,114.595 132.5,116.5C 130.865,120.573 129.865,124.906 129.5,129.5C 129.784,127.585 129.451,125.919 128.5,124.5C 129.205,121.756 129.205,119.089 128.5,116.5C 127.458,124.299 126.791,132.133 126.5,140C 127.333,148.493 127.5,156.993 127,165.5C 126.158,154.511 125.492,143.511 125,132.5C 124.667,135.167 124.333,137.833 124,140.5C 123.487,134.135 123.821,127.801 125,121.5C 125.333,122.833 125.667,124.167 126,125.5C 126.498,122.183 126.665,118.85 126.5,115.5C 125.5,115.5 124.5,115.5 123.5,115.5C 122.903,123.153 122.403,130.82 122,138.5C 121.015,136.825 120.181,135.158 119.5,133.5C 119.67,132.178 119.337,131.011 118.5,130C 120.362,126.851 121.029,123.351 120.5,119.5C 120.5,117.167 120.5,114.833 120.5,112.5 Z"/></g>
<g><path style="opacity:1" fill="#65290e" d="M 119.5,111.5 C 120.167,111.5 120.5,111.833 120.5,112.5C 120.5,114.833 120.5,117.167 120.5,119.5C 119.778,119.918 119.278,120.584 119,121.5C 118.502,118.518 118.335,115.518 118.5,112.5C 119.167,112.5 119.5,112.167 119.5,111.5 Z"/></g>
<g><path style="opacity:1" fill="#421b0c" d="M 152.5,114.5 C 154.099,114.232 155.432,114.566 156.5,115.5C 155.167,116.5 153.833,117.5 152.5,118.5C 152.5,118.167 152.5,117.833 152.5,117.5C 152.5,116.5 152.5,115.5 152.5,114.5 Z"/></g>
<g><path style="opacity:1" fill="#7d3712" d="M 78.5,98.5 C 79.5,98.8333 80.1667,99.5 80.5,100.5C 80.1667,105.833 79.8333,111.167 79.5,116.5C 79.7692,118.429 79.2692,120.095 78,121.5C 77.2019,113.754 77.3686,106.087 78.5,98.5 Z"/></g>
<g><path style="opacity:1" fill="#a95b2c" d="M 152.5,117.5 C 152.5,117.833 152.5,118.167 152.5,118.5C 152.5,118.833 152.5,119.167 152.5,119.5C 147.623,118.209 142.956,116.542 138.5,114.5C 139.151,113.909 139.818,113.243 140.5,112.5C 141.5,113.833 142.5,113.833 143.5,112.5C 145.79,115.459 148.79,117.126 152.5,117.5 Z"/></g>
<g><path style="opacity:1" fill="#5b250f" d="M 90.5,110.5 C 90.5,111.833 90.5,113.167 90.5,114.5C 90.0733,117.01 89.4067,119.343 88.5,121.5C 87.9197,117.351 88.5864,113.684 90.5,110.5 Z"/></g>
<g><path style="opacity:1" fill="#853812" d="M 156.5,115.5 C 157.833,115.833 159.167,116.167 160.5,116.5C 160.5,117.833 160.5,119.167 160.5,120.5C 158.194,120.007 155.861,119.674 153.5,119.5C 153.167,119.5 152.833,119.5 152.5,119.5C 152.5,119.167 152.5,118.833 152.5,118.5C 153.833,117.5 155.167,116.5 156.5,115.5 Z"/></g>
<g><path style="opacity:0.992" fill="#5f220b" d="M 160.5,116.5 C 166.038,118.207 171.371,120.207 176.5,122.5C 173.128,121.481 169.794,121.481 166.5,122.5C 164.302,122.125 162.302,121.458 160.5,120.5C 160.5,119.167 160.5,117.833 160.5,116.5 Z"/></g>
<g><path style="opacity:1" fill="#8c350f" d="M 113.5,111.5 C 115.117,112.038 116.784,112.371 118.5,112.5C 118.335,115.518 118.502,118.518 119,121.5C 119.278,120.584 119.778,119.918 120.5,119.5C 121.029,123.351 120.362,126.851 118.5,130C 119.337,131.011 119.67,132.178 119.5,133.5C 118.833,135.167 118.167,136.833 117.5,138.5C 116.778,138.918 116.278,139.584 116,140.5C 114.981,138.498 114.148,136.498 113.5,134.5C 113.5,126.833 113.5,119.167 113.5,111.5 Z"/></g>
<g><path style="opacity:1" fill="#ad6232" d="M 153.5,119.5 C 155.861,119.674 158.194,120.007 160.5,120.5C 162.302,121.458 164.302,122.125 166.5,122.5C 166.5,123.167 166.5,123.833 166.5,124.5C 161.909,123.279 157.576,121.612 153.5,119.5 Z"/></g>
<g><path style="opacity:1" fill="#ba7141" d="M 167.5,124.5 C 170.577,124.179 172.91,125.179 174.5,127.5C 171.982,126.736 169.649,125.736 167.5,124.5 Z"/></g>
<g><path style="opacity:1" fill="#4f1f0c" d="M 105.5,137.5 C 105.167,137.5 104.833,137.5 104.5,137.5C 104.168,128.475 104.502,119.475 105.5,110.5C 105.547,119.222 105.547,128.222 105.5,137.5 Z"/></g>
<g><path style="opacity:1" fill="#66240c" d="M 176.5,122.5 C 181.439,123.647 186.105,125.313 190.5,127.5C 188.706,129.94 186.706,129.94 184.5,127.5C 182.597,128.353 180.597,128.353 178.5,127.5C 178.169,125.678 177.502,124.011 176.5,122.5 Z"/></g>
<g><path style="opacity:1" fill="#9c4d1d" d="M 72.5,96.5 C 74.4214,97.3627 76.4214,98.0293 78.5,98.5C 77.3686,106.087 77.2019,113.754 78,121.5C 79.2692,120.095 79.7692,118.429 79.5,116.5C 80.1174,116.389 80.6174,116.056 81,115.5C 81.8618,117.594 83.0285,118.594 84.5,118.5C 84.2907,119.086 83.9574,119.586 83.5,120C 84.2266,121.399 84.7266,122.899 85,124.5C 85.4994,130.157 85.6661,135.824 85.5,141.5C 84.6317,144.327 84.6317,147.327 85.5,150.5C 84.6981,151.952 84.1981,153.618 84,155.5C 83.6667,153.5 83.3333,151.5 83,149.5C 82.8823,152.371 82.2156,155.038 81,157.5C 80.0272,154.421 79.1939,151.421 78.5,148.5C 79.4018,140.027 77.9018,132.027 74,124.5C 73.8276,118.319 73.3276,112.319 72.5,106.5C 72.5,103.167 72.5,99.8333 72.5,96.5 Z"/></g>
<g><path style="opacity:1" fill="#8e411a" d="M 176.5,122.5 C 177.502,124.011 178.169,125.678 178.5,127.5C 180.597,128.353 182.597,128.353 184.5,127.5C 186.706,129.94 188.706,129.94 190.5,127.5C 193.546,130.357 197.213,132.19 201.5,133C 202.252,133.671 202.586,134.504 202.5,135.5C 201.5,135.5 200.5,135.5 199.5,135.5C 191.086,133.128 182.752,130.462 174.5,127.5C 172.91,125.179 170.577,124.179 167.5,124.5C 167.167,124.5 166.833,124.5 166.5,124.5C 166.5,123.833 166.5,123.167 166.5,122.5C 169.794,121.481 173.128,121.481 176.5,122.5 Z"/></g>
<g><path style="opacity:1" fill="#b3591f" d="M 132.5,116.5 C 135.067,116.721 137.401,117.388 139.5,118.5C 139.167,118.5 138.833,118.5 138.5,118.5C 137.5,118.5 136.5,118.5 135.5,118.5C 135.721,121.279 135.388,123.946 134.5,126.5C 134.5,127.167 134.5,127.833 134.5,128.5C 133.549,129.919 133.216,131.585 133.5,133.5C 132.835,135.698 132.168,138.031 131.5,140.5C 130.833,132.491 131.166,124.491 132.5,116.5 Z"/></g>
<g><path style="opacity:1" fill="#aa5929" d="M 168.5,128.5 C 173.986,130.325 179.319,132.325 184.5,134.5C 182.983,134.511 181.816,135.177 181,136.5C 177.947,133.087 174.114,131.087 169.5,130.5C 168.702,130.043 168.369,129.376 168.5,128.5 Z"/></g>
<g><path style="opacity:0.992" fill="#60290e" d="M 190.5,127.5 C 203.378,131.459 216.045,135.792 228.5,140.5C 221.94,140.768 216.107,139.101 211,135.5C 208.121,135.56 205.288,135.56 202.5,135.5C 202.586,134.504 202.252,133.671 201.5,133C 197.213,132.19 193.546,130.357 190.5,127.5 Z"/></g>
<g><path style="opacity:1" fill="#8e3a0e" d="M 132.5,116.5 C 131.166,124.491 130.833,132.491 131.5,140.5C 132.168,138.031 132.835,135.698 133.5,133.5C 132.936,152.504 132.269,171.504 131.5,190.5C 130.833,179.167 130.167,167.833 129.5,156.5C 129.5,147.5 129.5,138.5 129.5,129.5C 129.865,124.906 130.865,120.573 132.5,116.5 Z"/></g>
<g><path style="opacity:1" fill="#a5592c" d="M 186.5,134.5 C 189.912,135.075 192.912,136.408 195.5,138.5C 194.833,138.5 194.167,138.5 193.5,138.5C 192.448,138.649 191.448,138.483 190.5,138C 188.681,137.26 187.348,136.093 186.5,134.5 Z"/></g>
<g><path style="opacity:1" fill="#6e3715" d="M 72.5,106.5 C 73.3276,112.319 73.8276,118.319 74,124.5C 77.9018,132.027 79.4018,140.027 78.5,148.5C 78.8222,154.358 78.4889,160.025 77.5,165.5C 78.7195,148.817 76.0528,132.817 69.5,117.5C 71.1254,114.109 72.1254,110.442 72.5,106.5 Z"/></g>
<g><path style="opacity:1" fill="#a34c1a" d="M 140.5,119.5 C 147.869,121.033 154.869,123.367 161.5,126.5C 161.167,126.5 160.833,126.5 160.5,126.5C 155.643,124.884 150.643,123.884 145.5,123.5C 145.746,130.518 145.913,137.518 146,144.5C 145.667,142.167 145.333,139.833 145,137.5C 144.423,141.888 144.756,146.221 146,150.5C 146.464,149.906 146.631,149.239 146.5,148.5C 147.124,148.917 147.457,149.584 147.5,150.5C 146.936,152.819 146.436,155.153 146,157.5C 143.97,144.862 142.136,132.195 140.5,119.5 Z"/></g>
<g><path style="opacity:1" fill="#87330e" d="M 161.5,126.5 C 163.553,126.402 165.22,127.069 166.5,128.5C 165.621,137.135 164.787,145.802 164,154.5C 163.667,154.833 163.333,155.167 163,155.5C 162.823,151.644 162.323,147.977 161.5,144.5C 161.5,138.5 161.5,132.5 161.5,126.5 Z"/></g>
<g><path style="opacity:1" fill="#702209" d="M 183.5,147.5 C 182.21,148.058 181.377,149.058 181,150.5C 180.667,149.833 180.333,149.167 180,148.5C 179.591,152.297 178.758,155.964 177.5,159.5C 175.172,160.736 174.006,162.736 174,165.5C 173.658,163.381 172.825,163.047 171.5,164.5C 171.073,161.212 171.74,158.212 173.5,155.5C 172.885,152.961 172.218,150.461 171.5,148C 174.689,146.456 175.855,143.956 175,140.5C 174.444,142.595 173.944,142.762 173.5,141C 173.962,138.323 174.796,135.823 176,133.5C 176.651,135.235 176.485,136.902 175.5,138.5C 176.631,139.604 177.465,139.271 178,137.5C 179.223,141.205 178.39,144.205 175.5,146.5C 176.843,150.361 178.343,150.361 180,146.5C 180.333,146.833 180.667,147.167 181,147.5C 183.579,140.83 185.579,140.83 187,147.5C 185.446,145.073 184.279,145.073 183.5,147.5 Z"/></g>
<g><path style="opacity:1" fill="#975327" d="M 199.5,135.5 C 200.5,135.5 201.5,135.5 202.5,135.5C 205.288,135.56 208.121,135.56 211,135.5C 216.107,139.101 221.94,140.768 228.5,140.5C 229.65,142.397 230.65,144.397 231.5,146.5C 220.621,143.208 209.955,139.541 199.5,135.5 Z"/></g>
<g><path style="opacity:1" fill="#a9561e" d="M 91.5,106.5 C 91.8368,108.672 92.8368,110.505 94.5,112C 93.596,116.111 93.2627,120.278 93.5,124.5C 94.2174,129.344 94.2174,134.011 93.5,138.5C 93.19,137.262 92.69,137.262 92,138.5C 91.6401,140.608 90.9734,142.608 90,144.5C 90.082,136.832 90.582,129.165 91.5,121.5C 91.4966,118.975 91.1633,116.641 90.5,114.5C 90.5,113.167 90.5,111.833 90.5,110.5C 90.2322,108.901 90.5655,107.568 91.5,106.5 Z"/></g>
<g><path style="opacity:1" fill="#b65f23" d="M 128.5,124.5 C 129.451,125.919 129.784,127.585 129.5,129.5C 129.5,138.5 129.5,147.5 129.5,156.5C 129.665,159.85 129.498,163.183 129,166.5C 127.948,152.484 127.781,138.484 128.5,124.5 Z"/></g>
<g><path style="opacity:1" fill="#661904" d="M 134.5,126.5 C 135.496,126.414 136.329,126.748 137,127.5C 138.203,135.797 139.203,144.13 140,152.5C 141.997,158.825 143.83,165.158 145.5,171.5C 146.7,174.969 146.7,178.302 145.5,181.5C 145.371,174.647 143.538,168.313 140,162.5C 139.317,157.56 138.15,152.893 136.5,148.5C 134.676,142.012 134.009,135.346 134.5,128.5C 134.5,127.833 134.5,127.167 134.5,126.5 Z"/></g>
<g><path style="opacity:1" fill="#73310f" d="M 228.5,140.5 C 231.486,140.903 234.152,141.903 236.5,143.5C 234.952,143.821 234.285,144.821 234.5,146.5C 233.5,146.5 232.5,146.5 231.5,146.5C 230.65,144.397 229.65,142.397 228.5,140.5 Z"/></g>
<g><path style="opacity:1" fill="#9f5425" d="M 209.5,142.5 C 215.788,144.987 222.121,147.321 228.5,149.5C 227.081,150.451 225.415,150.784 223.5,150.5C 223.802,153.059 223.468,155.393 222.5,157.5C 222.664,154.813 222.497,152.146 222,149.5C 220.333,148.167 218.667,148.167 217,149.5C 216.517,148.552 216.351,147.552 216.5,146.5C 215.5,146.5 214.5,146.5 213.5,146.5C 212.794,149.628 211.461,152.294 209.5,154.5C 209.5,150.833 209.5,147.167 209.5,143.5C 209.5,143.167 209.5,142.833 209.5,142.5 Z"/></g>
<g><path style="opacity:1" fill="#a95e26" d="M 88.5,127.5 C 88.2045,134.032 87.5378,140.532 86.5,147C 86.7087,151.271 87.542,151.104 89,146.5C 90.0748,150.858 89.4081,154.858 87,158.5C 86.6012,158.272 86.4346,157.938 86.5,157.5C 85.7814,155.236 85.448,152.903 85.5,150.5C 84.6317,147.327 84.6317,144.327 85.5,141.5C 85.9188,137.168 86.9188,132.501 88.5,127.5 Z"/></g>
<g><path style="opacity:1" fill="#652f10" d="M 236.5,143.5 C 251.604,148.22 266.604,153.22 281.5,158.5C 279.817,159.853 278.484,161.52 277.5,163.5C 270.191,166.919 262.525,169.586 254.5,171.5C 254.5,170.167 254.5,168.833 254.5,167.5C 259.616,166.461 264.616,164.795 269.5,162.5C 270.057,160.282 270.057,157.949 269.5,155.5C 266.833,155.5 264.167,155.5 261.5,155.5C 259.833,155.5 258.167,155.5 256.5,155.5C 256.167,155.5 255.833,155.5 255.5,155.5C 253.715,151.727 250.715,150.061 246.5,150.5C 246.741,147.001 245.908,146.668 244,149.5C 240.47,148.756 237.97,146.756 236.5,143.5 Z"/></g>
<g><path style="opacity:1" fill="#a24a16" d="M 138.5,118.5 C 140.178,133.286 142.511,147.953 145.5,162.5C 146.681,165.638 146.681,168.638 145.5,171.5C 143.83,165.158 141.997,158.825 140,152.5C 139.203,144.13 138.203,135.797 137,127.5C 136.329,126.748 135.496,126.414 134.5,126.5C 135.388,123.946 135.721,121.279 135.5,118.5C 136.5,118.5 137.5,118.5 138.5,118.5 Z"/></g>
<g><path style="opacity:1" fill="#89320d" d="M 160.5,126.5 C 160.5,133.5 160.5,140.5 160.5,147.5C 158.932,149.811 158.098,152.478 158,155.5C 157.189,154.04 156.355,153.707 155.5,154.5C 156.751,155.631 157.751,156.964 158.5,158.5C 157.5,160.5 156.5,162.5 155.5,164.5C 154.764,159.883 153.264,155.549 151,151.5C 150.586,151.957 150.086,152.291 149.5,152.5C 148.833,150.5 148.167,148.5 147.5,146.5C 146.702,146.957 146.369,147.624 146.5,148.5C 146.631,149.239 146.464,149.906 146,150.5C 144.756,146.221 144.423,141.888 145,137.5C 145.333,139.833 145.667,142.167 146,144.5C 145.913,137.518 145.746,130.518 145.5,123.5C 150.643,123.884 155.643,124.884 160.5,126.5 Z"/></g>
<g><path style="opacity:1" fill="#a66432" d="M 236.5,143.5 C 237.97,146.756 240.47,148.756 244,149.5C 245.908,146.668 246.741,147.001 246.5,150.5C 250.715,150.061 253.715,151.727 255.5,155.5C 247.308,152.794 239.308,149.794 231.5,146.5C 232.5,146.5 233.5,146.5 234.5,146.5C 234.285,144.821 234.952,143.821 236.5,143.5 Z"/></g>
<g><path style="opacity:1" fill="#8c370f" d="M 193.5,138.5 C 194.167,138.5 194.833,138.5 195.5,138.5C 200.224,139.63 204.891,140.964 209.5,142.5C 209.5,142.833 209.5,143.167 209.5,143.5C 207.856,143.714 206.356,143.38 205,142.5C 204.667,143.167 204.333,143.833 204,144.5C 202.529,142.128 201.363,142.128 200.5,144.5C 201.47,151.519 203.136,158.352 205.5,165C 205,166.5 204.5,168 204,169.5C 203.197,164.343 201.864,159.343 200,154.5C 198.66,153.132 197.326,151.799 196,150.5C 194.108,153.39 193.275,153.056 193.5,149.5C 194.665,148.504 195.332,147.171 195.5,145.5C 195.174,142.831 194.174,141.331 192.5,141C 192.743,140.098 193.077,139.265 193.5,138.5 Z"/></g>
<g><path style="opacity:1" fill="#802e0c" d="M 167.5,128.5 C 167.833,128.5 168.167,128.5 168.5,128.5C 168.369,129.376 168.702,130.043 169.5,130.5C 174.114,131.087 177.947,133.087 181,136.5C 181.816,135.177 182.983,134.511 184.5,134.5C 185.167,134.5 185.833,134.5 186.5,134.5C 187.348,136.093 188.681,137.26 190.5,138C 191.448,138.483 192.448,138.649 193.5,138.5C 193.077,139.265 192.743,140.098 192.5,141C 194.174,141.331 195.174,142.831 195.5,145.5C 195.332,147.171 194.665,148.504 193.5,149.5C 192.224,147.438 191.39,145.104 191,142.5C 190.833,143.5 190.667,144.5 190.5,145.5C 192.136,151.901 194.136,158.068 196.5,164C 195.552,164.483 194.552,164.649 193.5,164.5C 192.644,160.429 191.477,156.429 190,152.5C 189.333,151.167 188.667,151.167 188,152.5C 187.388,149.885 185.888,148.219 183.5,147.5C 184.279,145.073 185.446,145.073 187,147.5C 185.579,140.83 183.579,140.83 181,147.5C 180.667,147.167 180.333,146.833 180,146.5C 178.343,150.361 176.843,150.361 175.5,146.5C 178.39,144.205 179.223,141.205 178,137.5C 177.465,139.271 176.631,139.604 175.5,138.5C 176.485,136.902 176.651,135.235 176,133.5C 174.796,135.823 173.962,138.323 173.5,141C 173.944,142.762 174.444,142.595 175,140.5C 175.855,143.956 174.689,146.456 171.5,148C 172.218,150.461 172.885,152.961 173.5,155.5C 171.74,158.212 171.073,161.212 171.5,164.5C 171.5,165.833 171.5,167.167 171.5,168.5C 167.72,178.327 166.053,177.66 166.5,166.5C 166.341,153.967 166.674,141.3 167.5,128.5 Z"/></g>
<g><path style="opacity:1" fill="#7a3312" d="M 183.5,147.5 C 183.561,149.592 184.561,151.092 186.5,152C 182.599,153.556 180.766,156.389 181,160.5C 184.538,154.996 186.704,155.663 187.5,162.5C 187.333,163.167 187.167,163.833 187,164.5C 186.451,160.383 184.784,159.716 182,162.5C 181.271,167.206 180.438,171.873 179.5,176.5C 178.928,178.255 178.094,179.922 177,181.5C 176.989,178.185 177.822,175.019 179.5,172C 179.108,170.989 178.441,170.489 177.5,170.5C 178.823,165.912 178.323,165.578 176,169.5C 175.49,167.171 176.156,165.171 178,163.5C 178.765,161.934 178.598,160.601 177.5,159.5C 178.758,155.964 179.591,152.297 180,148.5C 180.333,149.167 180.667,149.833 181,150.5C 181.377,149.058 182.21,148.058 183.5,147.5 Z"/></g>
<g><path style="opacity:1" fill="#ae652c" d="M 230.5,150.5 C 230.833,150.5 231.167,150.5 231.5,150.5C 233.469,158.681 233.969,167.014 233,175.5C 232.667,175.833 232.333,176.167 232,176.5C 231.695,173.503 231.862,170.503 232.5,167.5C 231.114,163.266 230.447,158.932 230.5,154.5C 230.5,153.167 230.5,151.833 230.5,150.5 Z"/></g>
<g><path style="opacity:1" fill="#b06e36" d="M 234.5,151.5 C 237.252,152.512 239.919,153.512 242.5,154.5C 240.566,158.611 238.733,162.945 237,167.5C 236.503,169.81 236.337,172.143 236.5,174.5C 236.167,174.5 235.833,174.5 235.5,174.5C 235.336,169.466 235.669,164.466 236.5,159.5C 236.032,156.767 235.365,154.1 234.5,151.5 Z"/></g>
<g><path style="opacity:1" fill="#46240e" d="M 281.5,158.5 C 283.195,159.011 284.861,159.678 286.5,160.5C 283.85,162.494 280.85,163.494 277.5,163.5C 278.484,161.52 279.817,159.853 281.5,158.5 Z"/></g>
<g><path style="opacity:1" fill="#531805" d="M 160.5,126.5 C 160.833,126.5 161.167,126.5 161.5,126.5C 161.5,132.5 161.5,138.5 161.5,144.5C 161.334,152.507 161.5,160.507 162,168.5C 162.667,171.167 163.333,171.167 164,168.5C 164.824,177.343 164.657,186.01 163.5,194.5C 162.082,197.934 163.415,199.601 167.5,199.5C 165.312,200.623 162.979,200.623 160.5,199.5C 160.5,190.5 160.5,181.5 160.5,172.5C 160.5,164.167 160.5,155.833 160.5,147.5C 160.5,140.5 160.5,133.5 160.5,126.5 Z"/></g>
<g><path style="opacity:1" fill="#874015" d="M 261.5,155.5 C 264.167,155.5 266.833,155.5 269.5,155.5C 270.057,157.949 270.057,160.282 269.5,162.5C 264.616,164.795 259.616,166.461 254.5,167.5C 254.5,164.833 254.5,162.167 254.5,159.5C 257.786,160.207 261.119,160.54 264.5,160.5C 264.5,159.167 264.5,157.833 264.5,156.5C 263.209,156.737 262.209,156.404 261.5,155.5 Z"/></g>
<g><path style="opacity:1" fill="#81330d" d="M 128.5,124.5 C 127.781,138.484 127.948,152.484 129,166.5C 129.498,163.183 129.665,159.85 129.5,156.5C 130.167,167.833 130.833,179.167 131.5,190.5C 131.66,192.199 131.494,193.866 131,195.5C 129.756,192.362 129.089,189.028 129,185.5C 128.667,186.833 128.333,188.167 128,189.5C 127.79,183.769 127.124,178.103 126,172.5C 125.751,171.376 125.251,170.376 124.5,169.5C 124.167,170.167 123.833,170.833 123.5,171.5C 122.152,168.602 121.652,165.602 122,162.5C 122.973,164.392 123.64,166.392 124,168.5C 124.659,160.577 124.326,153.577 123,147.5C 121.663,146.235 120.163,145.735 118.5,146C 118.148,150.968 119.481,155.635 122.5,160C 122.056,161.762 121.556,161.595 121,159.5C 120.667,161.167 120.333,162.833 120,164.5C 117.348,155.964 116.515,147.297 117.5,138.5C 118.167,136.833 118.833,135.167 119.5,133.5C 120.181,135.158 121.015,136.825 122,138.5C 122.403,130.82 122.903,123.153 123.5,115.5C 124.5,115.5 125.5,115.5 126.5,115.5C 126.665,118.85 126.498,122.183 126,125.5C 125.667,124.167 125.333,122.833 125,121.5C 123.821,127.801 123.487,134.135 124,140.5C 124.333,137.833 124.667,135.167 125,132.5C 125.492,143.511 126.158,154.511 127,165.5C 127.5,156.993 127.333,148.493 126.5,140C 126.791,132.133 127.458,124.299 128.5,116.5C 129.205,119.089 129.205,121.756 128.5,124.5 Z"/></g>
<g><path style="opacity:1" fill="#894018" d="M 222.5,157.5 C 221.42,160.743 221.253,164.076 222,167.5C 222.333,165.5 222.667,163.5 223,161.5C 225.276,168.948 222.776,173.948 215.5,176.5C 214.614,177.325 214.281,178.325 214.5,179.5C 217.187,179.664 219.854,179.497 222.5,179C 223.973,178.29 224.64,177.124 224.5,175.5C 226.621,175.675 228.621,175.341 230.5,174.5C 230.443,175.609 230.11,176.609 229.5,177.5C 229.611,179.648 228.944,179.981 227.5,178.5C 222.651,180.172 217.651,181.338 212.5,182C 211.648,183.728 210.648,183.895 209.5,182.5C 209.5,173.167 209.5,163.833 209.5,154.5C 211.461,152.294 212.794,149.628 213.5,146.5C 214.5,146.5 215.5,146.5 216.5,146.5C 216.351,147.552 216.517,148.552 217,149.5C 218.667,148.167 220.333,148.167 222,149.5C 222.497,152.146 222.664,154.813 222.5,157.5 Z"/></g>
<g><path style="opacity:1" fill="#7b2b0b" d="M 90.5,114.5 C 91.1633,116.641 91.4966,118.975 91.5,121.5C 90.582,129.165 90.082,136.832 90,144.5C 90.9734,142.608 91.6401,140.608 92,138.5C 92.69,137.262 93.19,137.262 93.5,138.5C 94.5114,142.112 94.6781,145.779 94,149.5C 93.3333,148.167 92.6667,148.167 92,149.5C 91.5639,151.847 91.0639,154.181 90.5,156.5C 90.5565,157.737 91.0565,158.737 92,159.5C 93.0074,157.258 93.8407,157.592 94.5,160.5C 95.5691,163.408 95.7358,166.408 95,169.5C 94.8176,166.119 93.3176,165.119 90.5,166.5C 94.5663,170.641 96.3996,175.641 96,181.5C 95.1451,178.399 93.6451,175.732 91.5,173.5C 90.7492,174.376 90.2492,175.376 90,176.5C 89.6827,174.699 89.016,174.366 88,175.5C 88.1289,172.127 88.4622,168.794 89,165.5C 88.3333,166.833 87.6667,168.167 87,169.5C 86.0855,165.815 85.4189,166.148 85,170.5C 84.7745,165.978 85.2745,161.645 86.5,157.5C 86.4346,157.938 86.6012,158.272 87,158.5C 89.4081,154.858 90.0748,150.858 89,146.5C 87.542,151.104 86.7087,151.271 86.5,147C 87.5378,140.532 88.2045,134.032 88.5,127.5C 88.5,125.5 88.5,123.5 88.5,121.5C 89.4067,119.343 90.0733,117.01 90.5,114.5 Z"/></g>
<g><path style="opacity:1" fill="#6c260b" d="M 183.5,147.5 C 185.888,148.219 187.388,149.885 188,152.5C 188.667,151.167 189.333,151.167 190,152.5C 191.477,156.429 192.644,160.429 193.5,164.5C 194.863,167.662 195.697,170.996 196,174.5C 199.312,176.121 200.812,178.788 200.5,182.5C 197.882,182.779 195.382,183.446 193,184.5C 192.329,183.748 191.496,183.414 190.5,183.5C 190.918,182.778 191.584,182.278 192.5,182C 189.81,181.229 187.144,180.396 184.5,179.5C 185.263,178.281 186.263,177.281 187.5,176.5C 186.824,174.646 185.824,174.313 184.5,175.5C 183.764,177.541 182.931,179.541 182,181.5C 181.243,179.685 180.41,178.019 179.5,176.5C 180.438,171.873 181.271,167.206 182,162.5C 184.784,159.716 186.451,160.383 187,164.5C 187.167,163.833 187.333,163.167 187.5,162.5C 186.704,155.663 184.538,154.996 181,160.5C 180.766,156.389 182.599,153.556 186.5,152C 184.561,151.092 183.561,149.592 183.5,147.5 Z"/></g>
<g><path style="opacity:1" fill="#9a4d19" d="M 136.5,148.5 C 138.15,152.893 139.317,157.56 140,162.5C 143.538,168.313 145.371,174.647 145.5,181.5C 145.768,183.099 145.434,184.432 144.5,185.5C 143.833,183.167 143.167,180.833 142.5,178.5C 142.03,177.307 141.03,176.64 139.5,176.5C 138.006,176.709 136.839,177.376 136,178.5C 135.726,188.536 136.226,198.536 137.5,208.5C 137.5,209.167 137.5,209.833 137.5,210.5C 136.209,210.737 135.209,210.404 134.5,209.5C 133.232,190.191 133.399,170.858 135,151.5C 135.232,150.263 135.732,149.263 136.5,148.5 Z"/></g>
<g><path style="opacity:1" fill="#7f320f" d="M 231.5,150.5 C 232.609,150.557 233.609,150.89 234.5,151.5C 235.365,154.1 236.032,156.767 236.5,159.5C 235.669,164.466 235.336,169.466 235.5,174.5C 234.298,177.414 232.298,178.414 229.5,177.5C 230.11,176.609 230.443,175.609 230.5,174.5C 227.78,166.966 227.28,159.299 229,151.5C 229.232,152.737 229.732,153.737 230.5,154.5C 230.447,158.932 231.114,163.266 232.5,167.5C 231.862,170.503 231.695,173.503 232,176.5C 232.333,176.167 232.667,175.833 233,175.5C 233.969,167.014 233.469,158.681 231.5,150.5 Z"/></g>
<g><path style="opacity:1" fill="#9f5a29" d="M 245.5,155.5 C 249.507,156.506 253.507,157.506 257.5,158.5C 258.833,158.333 260.167,158.167 261.5,158C 259.685,157.243 258.019,156.41 256.5,155.5C 258.167,155.5 259.833,155.5 261.5,155.5C 262.209,156.404 263.209,156.737 264.5,156.5C 264.5,157.833 264.5,159.167 264.5,160.5C 261.119,160.54 257.786,160.207 254.5,159.5C 254.5,162.167 254.5,164.833 254.5,167.5C 251.404,166.907 249.071,167.907 247.5,170.5C 246.341,166.878 246.175,163.211 247,159.5C 247.401,161.521 248.568,162.855 250.5,163.5C 251.614,162.277 251.781,160.944 251,159.5C 249.02,158.251 247.187,156.918 245.5,155.5 Z"/></g>
<g><path style="opacity:1" fill="#792c0a" d="M 138.5,118.5 C 138.833,118.5 139.167,118.5 139.5,118.5C 140.167,118.5 140.5,118.833 140.5,119.5C 142.136,132.195 143.97,144.862 146,157.5C 146.436,155.153 146.936,152.819 147.5,150.5C 147.457,149.584 147.124,148.917 146.5,148.5C 146.369,147.624 146.702,146.957 147.5,146.5C 148.167,148.5 148.833,150.5 149.5,152.5C 150.086,152.291 150.586,151.957 151,151.5C 153.264,155.549 154.764,159.883 155.5,164.5C 156.5,162.5 157.5,160.5 158.5,158.5C 157.751,156.964 156.751,155.631 155.5,154.5C 156.355,153.707 157.189,154.04 158,155.5C 158.098,152.478 158.932,149.811 160.5,147.5C 160.5,155.833 160.5,164.167 160.5,172.5C 159.533,173.806 158.199,174.473 156.5,174.5C 156.762,175.978 156.429,177.311 155.5,178.5C 154.914,178.291 154.414,177.957 154,177.5C 153.117,182.129 152.117,186.462 151,190.5C 150.333,189.167 149.667,189.167 149,190.5C 148.667,191.833 148.333,193.167 148,194.5C 147.505,192.527 147.338,190.527 147.5,188.5C 149.559,183.717 149.559,178.884 147.5,174C 147.908,172.07 148.575,170.236 149.5,168.5C 148.6,166.761 147.933,164.928 147.5,163C 148.386,160.192 148.553,157.359 148,154.5C 147.454,157.379 146.621,160.046 145.5,162.5C 142.511,147.953 140.178,133.286 138.5,118.5 Z"/></g>
<g><path style="opacity:1" fill="#8e441a" d="M 242.5,154.5 C 243.609,154.557 244.609,154.89 245.5,155.5C 247.187,156.918 249.02,158.251 251,159.5C 251.781,160.944 251.614,162.277 250.5,163.5C 248.568,162.855 247.401,161.521 247,159.5C 246.175,163.211 246.341,166.878 247.5,170.5C 249.071,167.907 251.404,166.907 254.5,167.5C 254.5,168.833 254.5,170.167 254.5,171.5C 249.582,171.842 244.749,172.508 240,173.5C 239.667,173.167 239.333,172.833 239,172.5C 238.583,173.756 237.75,174.423 236.5,174.5C 236.337,172.143 236.503,169.81 237,167.5C 238.733,162.945 240.566,158.611 242.5,154.5 Z"/></g>
<g><path style="opacity:1" fill="#934a1d" d="M 228.5,149.5 C 229.167,149.833 229.833,150.167 230.5,150.5C 230.5,151.833 230.5,153.167 230.5,154.5C 229.732,153.737 229.232,152.737 229,151.5C 227.28,159.299 227.78,166.966 230.5,174.5C 228.621,175.341 226.621,175.675 224.5,175.5C 224.64,177.124 223.973,178.29 222.5,179C 219.854,179.497 217.187,179.664 214.5,179.5C 214.281,178.325 214.614,177.325 215.5,176.5C 222.776,173.948 225.276,168.948 223,161.5C 222.667,163.5 222.333,165.5 222,167.5C 221.253,164.076 221.42,160.743 222.5,157.5C 223.468,155.393 223.802,153.059 223.5,150.5C 225.415,150.784 227.081,150.451 228.5,149.5 Z"/></g>
<g><path style="opacity:1" fill="#68250a" d="M 209.5,154.5 C 209.5,163.833 209.5,173.167 209.5,182.5C 209.5,182.833 209.5,183.167 209.5,183.5C 208.566,184.568 208.232,185.901 208.5,187.5C 205.881,187.768 203.381,187.435 201,186.5C 198.189,189.163 195.022,189.83 191.5,188.5C 192.622,187.053 194.122,186.053 196,185.5C 196.333,185.833 196.667,186.167 197,186.5C 200.269,185.016 203.602,183.682 207,182.5C 207.051,179.132 206.551,175.798 205.5,172.5C 206.922,166.445 208.255,160.445 209.5,154.5 Z"/></g>
<g><path style="opacity:1" fill="#884118" d="M 78.5,148.5 C 79.1939,151.421 80.0272,154.421 81,157.5C 82.2156,155.038 82.8823,152.371 83,149.5C 83.3333,151.5 83.6667,153.5 84,155.5C 84.1981,153.618 84.6981,151.952 85.5,150.5C 85.448,152.903 85.7814,155.236 86.5,157.5C 85.2745,161.645 84.7745,165.978 85,170.5C 85.4189,166.148 86.0855,165.815 87,169.5C 87.6667,168.167 88.3333,166.833 89,165.5C 88.4622,168.794 88.1289,172.127 88,175.5C 89.016,174.366 89.6827,174.699 90,176.5C 90.2492,175.376 90.7492,174.376 91.5,173.5C 93.6451,175.732 95.1451,178.399 96,181.5C 96.3996,175.641 94.5663,170.641 90.5,166.5C 93.3176,165.119 94.8176,166.119 95,169.5C 95.7358,166.408 95.5691,163.408 94.5,160.5C 96.1644,161.949 96.9977,163.949 97,166.5C 98,163.167 99,159.833 100,156.5C 100.333,158.167 100.667,159.833 101,161.5C 101.623,157.068 102.623,156.735 104,160.5C 104.494,158.866 104.66,157.199 104.5,155.5C 105.303,165.01 105.97,174.677 106.5,184.5C 105.732,183.737 105.232,182.737 105,181.5C 104.172,185.466 103.672,189.466 103.5,193.5C 103.741,196.999 102.908,197.332 101,194.5C 100.853,189.039 100.02,183.706 98.5,178.5C 98.661,184.765 98.3277,191.099 97.5,197.5C 97.4135,201.639 98.0801,205.639 99.5,209.5C 99.1667,209.833 98.8333,210.167 98.5,210.5C 97.3756,205.279 96.5423,205.279 96,210.5C 96.1201,203.839 96.1201,197.173 96,190.5C 94.5921,186.943 93.5921,183.276 93,179.5C 92.3333,178.833 91.6667,178.167 91,177.5C 90.3333,180.833 90.3333,184.167 91,187.5C 92.4609,186.117 93.2942,186.451 93.5,188.5C 92.2502,188.577 91.4169,189.244 91,190.5C 89.9267,200.493 88.9267,210.493 88,220.5C 83.9021,222.066 79.7354,223.399 75.5,224.5C 75.0199,219.178 74.6865,213.845 74.5,208.5C 74.5,208.167 74.5,207.833 74.5,207.5C 80.2069,201.354 82.2069,194.02 80.5,185.5C 78.024,188.283 77.024,191.616 77.5,195.5C 76.0101,199.813 74.0101,203.813 71.5,207.5C 72.6066,200.382 74.2733,193.382 76.5,186.5C 76.2907,185.914 75.9574,185.414 75.5,185C 77.0233,182.566 78.0233,179.899 78.5,177C 77.565,174.619 77.2317,172.119 77.5,169.5C 77.5,168.167 77.5,166.833 77.5,165.5C 78.4889,160.025 78.8222,154.358 78.5,148.5 Z"/></g>
<g><path style="opacity:1" fill="#772e0c" d="M 193.5,149.5 C 193.275,153.056 194.108,153.39 196,150.5C 197.326,151.799 198.66,153.132 200,154.5C 201.864,159.343 203.197,164.343 204,169.5C 204.5,168 205,166.5 205.5,165C 203.136,158.352 201.47,151.519 200.5,144.5C 201.363,142.128 202.529,142.128 204,144.5C 204.333,143.833 204.667,143.167 205,142.5C 206.356,143.38 207.856,143.714 209.5,143.5C 209.5,147.167 209.5,150.833 209.5,154.5C 208.255,160.445 206.922,166.445 205.5,172.5C 206.551,175.798 207.051,179.132 207,182.5C 203.602,183.682 200.269,185.016 197,186.5C 196.667,186.167 196.333,185.833 196,185.5C 194.122,186.053 192.622,187.053 191.5,188.5C 191.5,189.167 191.167,189.5 190.5,189.5C 190.279,186.903 189.779,186.903 189,189.5C 188.626,188.584 188.126,187.75 187.5,187C 189.056,186.28 190.056,185.113 190.5,183.5C 191.496,183.414 192.329,183.748 193,184.5C 195.382,183.446 197.882,182.779 200.5,182.5C 200.812,178.788 199.312,176.121 196,174.5C 195.697,170.996 194.863,167.662 193.5,164.5C 194.552,164.649 195.552,164.483 196.5,164C 194.136,158.068 192.136,151.901 190.5,145.5C 190.667,144.5 190.833,143.5 191,142.5C 191.39,145.104 192.224,147.438 193.5,149.5 Z"/></g>
<g><path style="opacity:1" fill="#5d2e13" d="M 254.5,171.5 C 246.425,175.082 238.092,178.082 229.5,180.5C 226.161,180.89 222.827,181.39 219.5,182C 216.978,183.843 214.145,185.01 211,185.5C 209.97,185.164 209.47,184.497 209.5,183.5C 209.5,183.167 209.5,182.833 209.5,182.5C 210.648,183.895 211.648,183.728 212.5,182C 217.651,181.338 222.651,180.172 227.5,178.5C 228.944,179.981 229.611,179.648 229.5,177.5C 232.298,178.414 234.298,177.414 235.5,174.5C 235.833,174.5 236.167,174.5 236.5,174.5C 237.75,174.423 238.583,173.756 239,172.5C 239.333,172.833 239.667,173.167 240,173.5C 244.749,172.508 249.582,171.842 254.5,171.5 Z"/></g>
<g><path style="opacity:1" fill="#6f2809" d="M 142.5,178.5 C 140.958,177.699 139.292,177.366 137.5,177.5C 137.335,180.518 137.502,183.518 138,186.5C 139.694,187.699 141.194,189.032 142.5,190.5C 140.599,195.225 140.099,200.225 141,205.5C 142.011,206.337 143.178,206.67 144.5,206.5C 142.923,209.017 141.09,209.017 139,206.5C 138.722,207.416 138.222,208.082 137.5,208.5C 136.226,198.536 135.726,188.536 136,178.5C 136.839,177.376 138.006,176.709 139.5,176.5C 141.03,176.64 142.03,177.307 142.5,178.5 Z"/></g>
<g><path style="opacity:1" fill="#48220d" d="M 229.5,180.5 C 222.67,183.068 215.67,185.401 208.5,187.5C 208.232,185.901 208.566,184.568 209.5,183.5C 209.47,184.497 209.97,185.164 211,185.5C 214.145,185.01 216.978,183.843 219.5,182C 222.827,181.39 226.161,180.89 229.5,180.5 Z"/></g>
<g><path style="opacity:1" fill="#621b04" d="M 142.5,178.5 C 143.167,180.833 143.833,183.167 144.5,185.5C 144.833,188.833 145.167,192.167 145.5,195.5C 145.672,196.492 145.338,197.158 144.5,197.5C 143.545,195.254 142.878,192.921 142.5,190.5C 141.194,189.032 139.694,187.699 138,186.5C 137.502,183.518 137.335,180.518 137.5,177.5C 139.292,177.366 140.958,177.699 142.5,178.5 Z"/></g>
<g><path style="opacity:1" fill="#6c3615" d="M 77.5,169.5 C 77.2317,172.119 77.565,174.619 78.5,177C 78.0233,179.899 77.0233,182.566 75.5,185C 75.9574,185.414 76.2907,185.914 76.5,186.5C 74.2733,193.382 72.6066,200.382 71.5,207.5C 70.4161,210.004 69.0828,212.337 67.5,214.5C 66.391,214.557 65.391,214.89 64.5,215.5C 65.8845,211.664 66.8845,207.664 67.5,203.5C 72.2912,192.473 75.6245,181.14 77.5,169.5 Z"/></g>
<g><path style="opacity:1" fill="#722d0b" d="M 160.5,172.5 C 160.5,181.5 160.5,190.5 160.5,199.5C 158.614,200.361 156.78,201.361 155,202.5C 154.586,202.043 154.086,201.709 153.5,201.5C 150.772,204.066 147.772,205.066 144.5,204.5C 145.209,203.596 146.209,203.263 147.5,203.5C 147.5,202.5 147.5,201.5 147.5,200.5C 146.5,200.5 145.5,200.5 144.5,200.5C 144.5,199.5 144.5,198.5 144.5,197.5C 145.338,197.158 145.672,196.492 145.5,195.5C 146.325,191.353 146.825,187.019 147,182.5C 147.495,184.473 147.662,186.473 147.5,188.5C 147.338,190.527 147.505,192.527 148,194.5C 148.333,193.167 148.667,191.833 149,190.5C 149.667,189.167 150.333,189.167 151,190.5C 152.117,186.462 153.117,182.129 154,177.5C 154.414,177.957 154.914,178.291 155.5,178.5C 156.429,177.311 156.762,175.978 156.5,174.5C 158.199,174.473 159.533,173.806 160.5,172.5 Z"/></g>
<g><path style="opacity:1" fill="#873e13" d="M 147.5,188.5 C 147.662,186.473 147.495,184.473 147,182.5C 146.825,187.019 146.325,191.353 145.5,195.5C 145.167,192.167 144.833,188.833 144.5,185.5C 145.434,184.432 145.768,183.099 145.5,181.5C 146.7,178.302 146.7,174.969 145.5,171.5C 146.681,168.638 146.681,165.638 145.5,162.5C 146.621,160.046 147.454,157.379 148,154.5C 148.553,157.359 148.386,160.192 147.5,163C 147.933,164.928 148.6,166.761 149.5,168.5C 148.575,170.236 147.908,172.07 147.5,174C 149.559,178.884 149.559,183.717 147.5,188.5 Z"/></g>
<g><path style="opacity:1" fill="#65260c" d="M 177.5,159.5 C 178.598,160.601 178.765,161.934 178,163.5C 176.156,165.171 175.49,167.171 176,169.5C 178.323,165.578 178.823,165.912 177.5,170.5C 178.441,170.489 179.108,170.989 179.5,172C 177.822,175.019 176.989,178.185 177,181.5C 178.094,179.922 178.928,178.255 179.5,176.5C 180.41,178.019 181.243,179.685 182,181.5C 182.931,179.541 183.764,177.541 184.5,175.5C 185.824,174.313 186.824,174.646 187.5,176.5C 186.263,177.281 185.263,178.281 184.5,179.5C 187.144,180.396 189.81,181.229 192.5,182C 191.584,182.278 190.918,182.778 190.5,183.5C 190.056,185.113 189.056,186.28 187.5,187C 188.126,187.75 188.626,188.584 189,189.5C 189.779,186.903 190.279,186.903 190.5,189.5C 189.272,190.025 188.438,191.358 188,193.5C 185.092,193.96 182.092,193.96 179,193.5C 176.833,195.464 174.499,195.798 172,194.5C 169.8,195.651 168.3,197.318 167.5,199.5C 163.415,199.601 162.082,197.934 163.5,194.5C 164.455,196.71 165.955,197.043 168,195.5C 168.129,191.038 168.462,186.372 169,181.5C 170.716,180.448 171.716,181.114 172,183.5C 172.645,182.354 173.478,181.354 174.5,180.5C 173.582,176.456 172.582,172.456 171.5,168.5C 171.5,167.167 171.5,165.833 171.5,164.5C 172.825,163.047 173.658,163.381 174,165.5C 174.006,162.736 175.172,160.736 177.5,159.5 Z"/></g>
<g><path style="opacity:1" fill="#6e270a" d="M 166.5,128.5 C 166.833,128.5 167.167,128.5 167.5,128.5C 166.674,141.3 166.341,153.967 166.5,166.5C 166.053,177.66 167.72,178.327 171.5,168.5C 172.582,172.456 173.582,176.456 174.5,180.5C 173.478,181.354 172.645,182.354 172,183.5C 171.716,181.114 170.716,180.448 169,181.5C 168.462,186.372 168.129,191.038 168,195.5C 165.955,197.043 164.455,196.71 163.5,194.5C 164.657,186.01 164.824,177.343 164,168.5C 163.333,171.167 162.667,171.167 162,168.5C 161.5,160.507 161.334,152.507 161.5,144.5C 162.323,147.977 162.823,151.644 163,155.5C 163.333,155.167 163.667,154.833 164,154.5C 164.787,145.802 165.621,137.135 166.5,128.5 Z"/></g>
<g><path style="opacity:1" fill="#a66835" d="M 74.5,207.5 C 75.7284,203.985 77.0617,200.485 78.5,197C 78.4301,196.235 78.0967,195.735 77.5,195.5C 77.024,191.616 78.024,188.283 80.5,185.5C 82.2069,194.02 80.2069,201.354 74.5,207.5 Z"/></g>
<g><path style="opacity:1" fill="#7a3713" d="M 104.5,137.5 C 104.833,137.5 105.167,137.5 105.5,137.5C 106.111,146.821 106.611,156.155 107,165.5C 106.734,168.901 108.234,170.567 111.5,170.5C 111.299,167.492 110.966,164.492 110.5,161.5C 110.585,159.667 111.252,158.334 112.5,157.5C 112.44,175.842 112.774,194.176 113.5,212.5C 111.738,212.357 110.071,212.691 108.5,213.5C 107.749,212.624 107.249,211.624 107,210.5C 106.5,201.84 106.334,193.173 106.5,184.5C 105.97,174.677 105.303,165.01 104.5,155.5C 104.5,149.5 104.5,143.5 104.5,137.5 Z"/></g>
<g><path style="opacity:1" fill="#8c4819" d="M 142.5,190.5 C 142.878,192.921 143.545,195.254 144.5,197.5C 144.5,198.5 144.5,199.5 144.5,200.5C 145.5,200.5 146.5,200.5 147.5,200.5C 147.5,201.5 147.5,202.5 147.5,203.5C 146.209,203.263 145.209,203.596 144.5,204.5C 144.5,205.167 144.5,205.833 144.5,206.5C 143.178,206.67 142.011,206.337 141,205.5C 140.099,200.225 140.599,195.225 142.5,190.5 Z"/></g>
<g><path style="opacity:1" fill="#6f290b" d="M 134.5,128.5 C 134.009,135.346 134.676,142.012 136.5,148.5C 135.732,149.263 135.232,150.263 135,151.5C 133.399,170.858 133.232,190.191 134.5,209.5C 133.175,208.047 132.342,208.381 132,210.5C 130.84,208.203 129.84,208.536 129,211.5C 127.274,210.424 125.441,210.257 123.5,211C 120.457,211.798 117.624,212.965 115,214.5C 114.103,187.84 113.603,161.173 113.5,134.5C 114.148,136.498 114.981,138.498 116,140.5C 116.278,139.584 116.778,138.918 117.5,138.5C 116.515,147.297 117.348,155.964 120,164.5C 120.333,162.833 120.667,161.167 121,159.5C 121.556,161.595 122.056,161.762 122.5,160C 119.481,155.635 118.148,150.968 118.5,146C 120.163,145.735 121.663,146.235 123,147.5C 124.326,153.577 124.659,160.577 124,168.5C 123.64,166.392 122.973,164.392 122,162.5C 121.652,165.602 122.152,168.602 123.5,171.5C 123.833,170.833 124.167,170.167 124.5,169.5C 125.251,170.376 125.751,171.376 126,172.5C 127.124,178.103 127.79,183.769 128,189.5C 128.333,188.167 128.667,186.833 129,185.5C 129.089,189.028 129.756,192.362 131,195.5C 131.494,193.866 131.66,192.199 131.5,190.5C 132.269,171.504 132.936,152.504 133.5,133.5C 133.216,131.585 133.549,129.919 134.5,128.5 Z"/></g>
<g><path style="opacity:1" fill="#592308" d="M 160.5,199.5 C 159.901,202.168 158.234,204.002 155.5,205C 151.746,206.378 148.08,206.878 144.5,206.5C 144.5,205.833 144.5,205.167 144.5,204.5C 147.772,205.066 150.772,204.066 153.5,201.5C 154.086,201.709 154.586,202.043 155,202.5C 156.78,201.361 158.614,200.361 160.5,199.5 Z"/></g>
<g><path style="opacity:1" fill="#793512" d="M 103.5,193.5 C 104.139,194.097 104.472,194.93 104.5,196C 103.204,196.915 102.537,198.581 102.5,201C 103.533,205.482 104.033,209.982 104,214.5C 103.667,213.5 103.333,212.5 103,211.5C 102.506,213.134 102.34,214.801 102.5,216.5C 99.6755,216.919 97.5088,215.919 96,213.5C 95.6667,214.833 95.3333,216.167 95,217.5C 93.8187,205.821 92.8187,206.154 92,218.5C 90.4796,214.625 90.1462,210.625 91,206.5C 92.0461,201.586 93.2127,196.753 94.5,192C 94.4857,190.615 94.1524,189.449 93.5,188.5C 93.2942,186.451 92.4609,186.117 91,187.5C 90.3333,184.167 90.3333,180.833 91,177.5C 91.6667,178.167 92.3333,178.833 93,179.5C 93.5921,183.276 94.5921,186.943 96,190.5C 96.1201,197.173 96.1201,203.839 96,210.5C 96.5423,205.279 97.3756,205.279 98.5,210.5C 98.8333,210.167 99.1667,209.833 99.5,209.5C 98.0801,205.639 97.4135,201.639 97.5,197.5C 98.3277,191.099 98.661,184.765 98.5,178.5C 100.02,183.706 100.853,189.039 101,194.5C 102.908,197.332 103.741,196.999 103.5,193.5 Z"/></g>
<g><path style="opacity:1" fill="#421907" d="M 208.5,187.5 C 176.088,199.164 143.421,210.497 110.5,221.5C 111.812,220.188 113.146,218.854 114.5,217.5C 115.086,217.709 115.586,218.043 116,218.5C 121.54,215.487 127.373,213.154 133.5,211.5C 135.297,212.932 136.63,212.599 137.5,210.5C 137.5,209.833 137.5,209.167 137.5,208.5C 138.222,208.082 138.722,207.416 139,206.5C 141.09,209.017 142.923,209.017 144.5,206.5C 148.08,206.878 151.746,206.378 155.5,205C 158.234,204.002 159.901,202.168 160.5,199.5C 162.979,200.623 165.312,200.623 167.5,199.5C 168.3,197.318 169.8,195.651 172,194.5C 174.499,195.798 176.833,195.464 179,193.5C 182.092,193.96 185.092,193.96 188,193.5C 188.438,191.358 189.272,190.025 190.5,189.5C 191.167,189.5 191.5,189.167 191.5,188.5C 195.022,189.83 198.189,189.163 201,186.5C 203.381,187.435 205.881,187.768 208.5,187.5 Z"/></g>
<g><path style="opacity:1" fill="#56240b" d="M 67.5,203.5 C 66.8845,207.664 65.8845,211.664 64.5,215.5C 62.2981,217.628 59.9647,219.628 57.5,221.5C 60.8653,215.428 64.1986,209.428 67.5,203.5 Z"/></g>
<g><path style="opacity:1" fill="#5a230b" d="M 113.5,111.5 C 113.5,119.167 113.5,126.833 113.5,134.5C 113.603,161.173 114.103,187.84 115,214.5C 117.624,212.965 120.457,211.798 123.5,211C 125.441,210.257 127.274,210.424 129,211.5C 129.84,208.536 130.84,208.203 132,210.5C 132.342,208.381 133.175,208.047 134.5,209.5C 135.209,210.404 136.209,210.737 137.5,210.5C 136.63,212.599 135.297,212.932 133.5,211.5C 127.373,213.154 121.54,215.487 116,218.5C 115.586,218.043 115.086,217.709 114.5,217.5C 113.146,218.854 111.812,220.188 110.5,221.5C 105.026,222.207 99.6929,223.207 94.5,224.5C 94.5,223.167 94.5,221.833 94.5,220.5C 96.4815,221.348 98.4815,221.848 100.5,222C 103.921,220.542 107.088,218.708 110,216.5C 110.333,216.833 110.667,217.167 111,217.5C 112.372,216.09 113.205,214.423 113.5,212.5C 112.774,194.176 112.44,175.842 112.5,157.5C 112.168,141.422 112.501,126.088 113.5,111.5 Z"/></g>
<g><path style="opacity:1" fill="#dec5b0" d="M 77.5,195.5 C 78.0967,195.735 78.4301,196.235 78.5,197C 77.0617,200.485 75.7284,203.985 74.5,207.5C 74.5,207.833 74.5,208.167 74.5,208.5C 71.8486,213.131 69.1819,217.798 66.5,222.5C 64.5,225.167 62.1667,227.5 59.5,229.5C 57.8947,230.969 57.3947,230.635 58,228.5C 61.4241,223.978 64.5908,219.311 67.5,214.5C 69.0828,212.337 70.4161,210.004 71.5,207.5C 74.0101,203.813 76.0101,199.813 77.5,195.5 Z"/></g>
<g><path style="opacity:1" fill="#8c4c20" d="M 106.5,184.5 C 106.334,193.173 106.5,201.84 107,210.5C 107.249,211.624 107.749,212.624 108.5,213.5C 110.071,212.691 111.738,212.357 113.5,212.5C 113.205,214.423 112.372,216.09 111,217.5C 110.667,217.167 110.333,216.833 110,216.5C 107.088,218.708 103.921,220.542 100.5,222C 98.4815,221.848 96.4815,221.348 94.5,220.5C 94.5,221.833 94.5,223.167 94.5,224.5C 92.2967,224.065 90.2967,224.065 88.5,224.5C 87.8826,224.389 87.3826,224.056 87,223.5C 82.9037,224.88 78.9037,226.546 75,228.5C 72.1689,228.33 71.6689,227.163 73.5,225C 73.0216,222.774 72.355,220.608 71.5,218.5C 70.3954,220.611 68.7288,221.945 66.5,222.5C 69.1819,217.798 71.8486,213.131 74.5,208.5C 74.6865,213.845 75.0199,219.178 75.5,224.5C 79.7354,223.399 83.9021,222.066 88,220.5C 88.9267,210.493 89.9267,200.493 91,190.5C 91.4169,189.244 92.2502,188.577 93.5,188.5C 94.1524,189.449 94.4857,190.615 94.5,192C 93.2127,196.753 92.0461,201.586 91,206.5C 90.1462,210.625 90.4796,214.625 92,218.5C 92.8187,206.154 93.8187,205.821 95,217.5C 95.3333,216.167 95.6667,214.833 96,213.5C 97.5088,215.919 99.6755,216.919 102.5,216.5C 102.34,214.801 102.506,213.134 103,211.5C 103.333,212.5 103.667,213.5 104,214.5C 104.033,209.982 103.533,205.482 102.5,201C 102.537,198.581 103.204,196.915 104.5,196C 104.472,194.93 104.139,194.097 103.5,193.5C 103.672,189.466 104.172,185.466 105,181.5C 105.232,182.737 105.732,183.737 106.5,184.5 Z"/></g>
<g><path style="opacity:1" fill="#773512" d="M 64.5,215.5 C 62.5033,218.666 60.8366,222 59.5,225.5C 58.5,225.5 57.5,225.5 56.5,225.5C 55.9426,227.949 55.9426,230.282 56.5,232.5C 58.2131,232.121 59.2131,231.121 59.5,229.5C 62.1667,227.5 64.5,225.167 66.5,222.5C 68.7288,221.945 70.3954,220.611 71.5,218.5C 72.355,220.608 73.0216,222.774 73.5,225C 71.6689,227.163 72.1689,228.33 75,228.5C 78.9037,226.546 82.9037,224.88 87,223.5C 87.3826,224.056 87.8826,224.389 88.5,224.5C 88.5,225.5 88.5,226.5 88.5,227.5C 84.7512,227.751 81.0845,228.417 77.5,229.5C 77.5,230.5 77.5,231.5 77.5,232.5C 76.1779,232.67 75.0113,232.337 74,231.5C 71.5594,232.311 69.0594,233.644 66.5,235.5C 65.2502,235.423 64.4169,234.756 64,233.5C 63.4867,234.527 62.9867,235.527 62.5,236.5C 58.3736,236.434 54.3736,237.101 50.5,238.5C 49.6143,237.675 49.281,236.675 49.5,235.5C 50.5,235.5 51.5,235.5 52.5,235.5C 53.7769,231.935 54.7769,228.268 55.5,224.5C 55.427,222.973 56.0937,221.973 57.5,221.5C 59.9647,219.628 62.2981,217.628 64.5,215.5 Z"/></g>
<g><path style="opacity:1" fill="#4b240e" d="M 110.5,221.5 C 97.3079,226.468 83.9746,231.135 70.5,235.5C 69.1667,235.5 67.8333,235.5 66.5,235.5C 69.0594,233.644 71.5594,232.311 74,231.5C 75.0113,232.337 76.1779,232.67 77.5,232.5C 77.5,231.5 77.5,230.5 77.5,229.5C 81.0845,228.417 84.7512,227.751 88.5,227.5C 88.5,226.5 88.5,225.5 88.5,224.5C 90.2967,224.065 92.2967,224.065 94.5,224.5C 99.6929,223.207 105.026,222.207 110.5,221.5 Z"/></g>
<g><path style="opacity:1" fill="#904d21" d="M 67.5,214.5 C 64.5908,219.311 61.4241,223.978 58,228.5C 57.3947,230.635 57.8947,230.969 59.5,229.5C 59.2131,231.121 58.2131,232.121 56.5,232.5C 55.9426,230.282 55.9426,227.949 56.5,225.5C 57.5,225.5 58.5,225.5 59.5,225.5C 60.8366,222 62.5033,218.666 64.5,215.5C 65.391,214.89 66.391,214.557 67.5,214.5 Z"/></g>
<g><path style="opacity:0.999" fill="#5a220a" d="M 55.5,224.5 C 54.7769,228.268 53.7769,231.935 52.5,235.5C 51.5,235.5 50.5,235.5 49.5,235.5C 49.281,236.675 49.6143,237.675 50.5,238.5C 54.3736,237.101 58.3736,236.434 62.5,236.5C 58.3369,239.021 53.6702,240.354 48.5,240.5C 48.5,238.167 48.5,235.833 48.5,233.5C 50.4821,230.19 52.8154,227.19 55.5,224.5 Z"/></g>
<g><path style="opacity:1" fill="#3f1909" d="M 48.5,233.5 C 48.5,235.833 48.5,238.167 48.5,240.5C 53.6702,240.354 58.3369,239.021 62.5,236.5C 62.9867,235.527 63.4867,234.527 64,233.5C 64.4169,234.756 65.2502,235.423 66.5,235.5C 67.8333,235.5 69.1667,235.5 70.5,235.5C 59.424,239.537 47.924,243.87 36,248.5C 38.3763,242.869 42.543,237.869 48.5,233.5 Z"/></g>
</svg>
