<?xml version="1.0" encoding="UTF-8"?>
<!DOCTYPE svg PUBLIC "-//W3C//DTD SVG 1.1//EN" "http://www.w3.org/Graphics/SVG/1.1/DTD/svg11.dtd">
<svg xmlns="http://www.w3.org/2000/svg" version="1.1" width="320px" height="320px" style="shape-rendering:geometricPrecision; text-rendering:geometricPrecision; image-rendering:optimizeQuality; fill-rule:evenodd; clip-rule:evenodd" xmlns:xlink="http://www.w3.org/1999/xlink">
<g><path style="opacity:0.135" fill="#000000" d="M 269.5,61.5 C 296.399,56.9195 305.233,67.5862 296,93.5C 288.786,100.895 281.786,108.561 275,116.5C 252.578,145.099 250.578,175.099 269,206.5C 277.569,219.072 286.903,231.072 297,242.5C 298.506,249.433 298.839,256.433 298,263.5C 297.394,266.548 295.894,269.048 293.5,271C 284.167,273 274.833,273 265.5,271C 181.758,241.864 98.0913,212.531 14.5,183C 11.5749,178.16 10.2416,172.826 10.5,167C 10.6443,162.79 11.1443,158.624 12,154.5C 13.8734,152.291 16.04,150.458 18.5,149C 102.185,119.992 185.852,90.8254 269.5,61.5 Z"/></g>
<g><path style="opacity:0.999" fill="#501f0a" d="M 273.5,83.5 C 273.778,81.6536 273.111,80.3202 271.5,79.5C 262.324,82.5889 252.99,85.2556 243.5,87.5C 256.12,82.5679 268.953,77.9013 282,73.5C 282.5,73.6667 283,73.8333 283.5,74C 280.297,77.3709 276.964,80.5375 273.5,83.5 Z"/></g>
<g><path style="opacity:1" fill="#723011" d="M 273.5,83.5 C 270.471,86.859 267.471,90.1924 264.5,93.5C 263.178,93.33 262.011,93.6634 261,94.5C 259.167,97.5 257.333,100.5 255.5,103.5C 254.583,102.873 253.583,102.539 252.5,102.5C 252.859,100.515 253.692,99.8487 255,100.5C 258.205,96.6597 260.372,92.3264 261.5,87.5C 263.599,86.4829 264.599,85.1495 264.5,83.5C 262.757,85.0383 260.757,86.0383 258.5,86.5C 254.47,86.799 250.637,87.799 247,89.5C 245.951,88.4829 244.784,88.3162 243.5,89C 240.508,91.1101 237.175,92.4434 233.5,93C 230.526,95.4465 227.526,97.6132 224.5,99.5C 223.833,99.5 223.167,99.5 222.5,99.5C 221.531,98.6906 220.698,97.6906 220,96.5C 216.596,97.8007 213.096,98.8007 209.5,99.5C 220.347,94.5482 231.681,90.5482 243.5,87.5C 252.99,85.2556 262.324,82.5889 271.5,79.5C 273.111,80.3202 273.778,81.6536 273.5,83.5 Z"/></g>
<g><path style="opacity:1" fill="#9d5627" d="M 258.5,86.5 C 247.405,91.2026 236.071,95.5359 224.5,99.5C 227.526,97.6132 230.526,95.4465 233.5,93C 237.175,92.4434 240.508,91.1101 243.5,89C 244.784,88.3162 245.951,88.4829 247,89.5C 250.637,87.799 254.47,86.799 258.5,86.5 Z"/></g>
<g><path style="opacity:1" fill="#b67543" d="M 253.5,92.5 C 251.388,94.2055 249.055,95.5389 246.5,96.5C 244.283,97.3686 241.95,97.702 239.5,97.5C 243.94,95.4624 248.607,93.7958 253.5,92.5 Z"/></g>
<g><path style="opacity:1" fill="#8b471c" d="M 222.5,99.5 C 217.699,99.6888 213.033,100.356 208.5,101.5C 208.5,102.5 208.5,103.5 208.5,104.5C 207.833,104.5 207.167,104.5 206.5,104.5C 207.167,102.833 207.833,101.167 208.5,99.5C 208.833,99.5 209.167,99.5 209.5,99.5C 213.096,98.8007 216.596,97.8007 220,96.5C 220.698,97.6906 221.531,98.6906 222.5,99.5 Z"/></g>
<g><path style="opacity:1" fill="#b36d38" d="M 222.5,99.5 C 217.877,101.16 213.21,102.827 208.5,104.5C 208.5,103.5 208.5,102.5 208.5,101.5C 213.033,100.356 217.699,99.6888 222.5,99.5 Z"/></g>
<g><path style="opacity:1" fill="#853c14" d="M 261.5,87.5 C 260.372,92.3264 258.205,96.6597 255,100.5C 253.692,99.8487 252.859,100.515 252.5,102.5C 252.5,103.833 252.5,105.167 252.5,106.5C 251.381,110.187 249.881,113.854 248,117.5C 247.826,112.316 247.326,107.316 246.5,102.5C 246.5,100.5 246.5,98.5 246.5,96.5C 249.055,95.5389 251.388,94.2055 253.5,92.5C 256.131,90.8474 258.797,89.1807 261.5,87.5 Z"/></g>
<g><path style="opacity:1" fill="#a55d2c" d="M 233.5,100.5 C 232.968,102.63 232.135,104.63 231,106.5C 230.311,101.638 229.144,101.638 227.5,106.5C 225.871,108.06 224.704,107.727 224,105.5C 223.722,106.416 223.222,107.082 222.5,107.5C 222.649,106.448 222.483,105.448 222,104.5C 221.667,105.833 221.333,107.167 221,108.5C 219.192,106.442 217.025,106.108 214.5,107.5C 213.508,107.328 212.842,107.662 212.5,108.5C 211.5,108.5 210.5,108.5 209.5,108.5C 216.998,104.773 224.998,102.106 233.5,100.5 Z"/></g>
<g><path style="opacity:1" fill="#a45725" d="M 206.5,104.5 C 204.605,106.241 202.272,107.241 199.5,107.5C 199.351,106.448 199.517,105.448 200,104.5C 201.875,103.61 204.041,103.61 206.5,104.5 Z"/></g>
<g><path style="opacity:0.999" fill="#4d1c08" d="M 264.5,93.5 C 260.487,99.5368 256.487,105.537 252.5,111.5C 252.5,109.833 252.5,108.167 252.5,106.5C 252.5,105.167 252.5,103.833 252.5,102.5C 253.583,102.539 254.583,102.873 255.5,103.5C 257.333,100.5 259.167,97.5 261,94.5C 262.011,93.6634 263.178,93.33 264.5,93.5 Z"/></g>
<g><path style="opacity:1" fill="#974618" d="M 246.5,96.5 C 246.5,98.5 246.5,100.5 246.5,102.5C 245.756,106.119 245.423,109.785 245.5,113.5C 243.883,115.121 242.716,117.121 242,119.5C 241.911,123.028 241.244,126.362 240,129.5C 239.667,125.167 239.333,120.833 239,116.5C 237.853,115.542 236.853,115.875 236,117.5C 235.667,115.167 235.333,112.833 235,110.5C 234.17,116.196 234.337,121.863 235.5,127.5C 235.941,130.801 236.941,133.135 238.5,134.5C 238,136.5 237.5,138.5 237,140.5C 236.667,139.833 236.333,139.167 236,138.5C 235.667,140.833 235.333,143.167 235,145.5C 234.667,142.833 234.333,140.167 234,137.5C 233.667,139.167 233.333,140.833 233,142.5C 232.667,138.833 232.333,135.167 232,131.5C 231.722,130.584 231.222,129.918 230.5,129.5C 230.5,127.5 230.5,125.5 230.5,123.5C 230.826,119.116 230.492,114.783 229.5,110.5C 228.614,111.325 228.281,112.325 228.5,113.5C 227.274,119.691 227.274,126.024 228.5,132.5C 227.018,129.312 226.018,125.979 225.5,122.5C 225.66,119.116 225.327,115.783 224.5,112.5C 225.963,110.711 226.963,108.711 227.5,106.5C 229.144,101.638 230.311,101.638 231,106.5C 232.135,104.63 232.968,102.63 233.5,100.5C 235.113,98.9121 237.113,97.9121 239.5,97.5C 241.95,97.702 244.283,97.3686 246.5,96.5 Z"/></g>
<g><path style="opacity:1" fill="#72300f" d="M 208.5,99.5 C 207.833,101.167 207.167,102.833 206.5,104.5C 204.041,103.61 201.875,103.61 200,104.5C 199.517,105.448 199.351,106.448 199.5,107.5C 198.791,108.404 197.791,108.737 196.5,108.5C 193.583,109.291 190.75,109.291 188,108.5C 186.983,111.028 185.816,111.028 184.5,108.5C 183.828,109.949 183.161,111.282 182.5,112.5C 182.5,110.833 182.5,109.167 182.5,107.5C 191.27,105.141 199.937,102.475 208.5,99.5 Z"/></g>
<g><path style="opacity:1" fill="#712a0d" d="M 227.5,106.5 C 226.963,108.711 225.963,110.711 224.5,112.5C 225.327,115.783 225.66,119.116 225.5,122.5C 225.5,123.167 225.5,123.833 225.5,124.5C 224.141,119.025 223.141,113.358 222.5,107.5C 223.222,107.082 223.722,106.416 224,105.5C 224.704,107.727 225.871,108.06 227.5,106.5 Z"/></g>
<g><path style="opacity:1" fill="#61230b" d="M 177.5,110.5 C 177.735,109.903 178.235,109.57 179,109.5C 180.174,110.544 181.341,111.544 182.5,112.5C 182.5,112.833 182.5,113.167 182.5,113.5C 182.167,113.5 181.833,113.5 181.5,113.5C 180.167,112.5 178.833,111.5 177.5,110.5 Z"/></g>
<g><path style="opacity:1" fill="#a05120" d="M 196.5,108.5 C 192.048,110.541 187.382,112.208 182.5,113.5C 182.5,113.167 182.5,112.833 182.5,112.5C 183.161,111.282 183.828,109.949 184.5,108.5C 185.816,111.028 186.983,111.028 188,108.5C 190.75,109.291 193.583,109.291 196.5,108.5 Z"/></g>
<g><path style="opacity:1" fill="#e7cdba" d="M 261.5,87.5 C 258.797,89.1807 256.131,90.8474 253.5,92.5C 248.607,93.7958 243.94,95.4624 239.5,97.5C 237.113,97.9121 235.113,98.9121 233.5,100.5C 224.998,102.106 216.998,104.773 209.5,108.5C 206.084,108.528 203.084,109.528 200.5,111.5C 200.167,111.5 199.833,111.5 199.5,111.5C 199.167,111.5 198.833,111.5 198.5,111.5C 195.256,112.463 192.256,113.796 189.5,115.5C 185.838,115.723 182.505,116.723 179.5,118.5C 179.167,118.5 178.833,118.5 178.5,118.5C 171.144,120.394 164.144,123.06 157.5,126.5C 156.833,126.5 156.167,126.5 155.5,126.5C 151.605,127.462 147.939,128.796 144.5,130.5C 137.93,132.385 131.596,134.718 125.5,137.5C 120.034,138.767 114.701,140.433 109.5,142.5C 103.854,144.319 98.1875,146.152 92.5,148C 91.944,148.383 91.6107,148.883 91.5,149.5C 90.8333,149.5 90.1667,149.5 89.5,149.5C 87.6943,150.024 86.0276,150.691 84.5,151.5C 81.4915,152.629 78.4915,153.629 75.5,154.5C 74.8333,154.5 74.5,154.833 74.5,155.5C 69.8427,156.496 65.1761,157.496 60.5,158.5C 59.1667,158.333 57.8333,158.167 56.5,158C 57.056,157.617 57.3893,157.117 57.5,156.5C 67.1328,153.994 76.4661,150.994 85.5,147.5C 95.7868,144.435 105.787,140.768 115.5,136.5C 128.193,132.919 140.526,128.585 152.5,123.5C 157.207,122.376 161.874,121.043 166.5,119.5C 169.906,118.122 173.24,116.789 176.5,115.5C 177.167,115.5 177.5,115.167 177.5,114.5C 179.099,114.768 180.432,114.434 181.5,113.5C 181.833,113.5 182.167,113.5 182.5,113.5C 187.382,112.208 192.048,110.541 196.5,108.5C 197.791,108.737 198.791,108.404 199.5,107.5C 202.272,107.241 204.605,106.241 206.5,104.5C 207.167,104.5 207.833,104.5 208.5,104.5C 213.21,102.827 217.877,101.16 222.5,99.5C 223.167,99.5 223.833,99.5 224.5,99.5C 236.071,95.5359 247.405,91.2026 258.5,86.5C 260.757,86.0383 262.757,85.0383 264.5,83.5C 264.599,85.1495 263.599,86.4829 261.5,87.5 Z"/></g>
<g><path style="opacity:1" fill="#76300f" d="M 177.5,110.5 C 177.5,111.833 177.5,113.167 177.5,114.5C 177.5,115.167 177.167,115.5 176.5,115.5C 175.778,115.082 175.278,114.416 175,113.5C 172.628,115.686 169.794,117.019 166.5,117.5C 166.5,116.5 166.5,115.5 166.5,114.5C 169.797,112.399 173.463,111.065 177.5,110.5 Z"/></g>
<g><path style="opacity:1" fill="#a55c2b" d="M 177.5,110.5 C 178.833,111.5 180.167,112.5 181.5,113.5C 180.432,114.434 179.099,114.768 177.5,114.5C 177.5,113.167 177.5,111.833 177.5,110.5 Z"/></g>
<g><path style="opacity:1" fill="#5a230d" d="M 230.5,123.5 C 229.566,120.344 228.899,117.011 228.5,113.5C 228.281,112.325 228.614,111.325 229.5,110.5C 230.492,114.783 230.826,119.116 230.5,123.5 Z"/></g>
<g><path style="opacity:1" fill="#6d3413" d="M 246.5,102.5 C 247.326,107.316 247.826,112.316 248,117.5C 249.881,113.854 251.381,110.187 252.5,106.5C 252.5,108.167 252.5,109.833 252.5,111.5C 246.951,123.051 242.951,135.051 240.5,147.5C 241.852,136.1 243.519,124.767 245.5,113.5C 245.423,109.785 245.756,106.119 246.5,102.5 Z"/></g>
<g><path style="opacity:1" fill="#b16230" d="M 176.5,115.5 C 173.24,116.789 169.906,118.122 166.5,119.5C 166.5,119.167 166.5,118.833 166.5,118.5C 166.5,118.167 166.5,117.833 166.5,117.5C 169.794,117.019 172.628,115.686 175,113.5C 175.278,114.416 175.778,115.082 176.5,115.5 Z"/></g>
<g><path style="opacity:1" fill="#65290e" d="M 198.5,111.5 C 198.833,111.5 199.167,111.5 199.5,111.5C 200.58,114.743 200.747,118.076 200,121.5C 199.722,120.584 199.222,119.918 198.5,119.5C 198.5,116.833 198.5,114.167 198.5,111.5 Z"/></g>
<g><path style="opacity:1" fill="#53230e" d="M 214.5,107.5 C 214.5,117.833 214.5,128.167 214.5,138.5C 213.833,130.5 213.167,122.5 212.5,114.5C 212.5,112.5 212.5,110.5 212.5,108.5C 212.842,107.662 213.508,107.328 214.5,107.5 Z"/></g>
<g><path style="opacity:1" fill="#a1521f" d="M 245.5,113.5 C 243.519,124.767 241.852,136.1 240.5,147.5C 240.5,147.833 240.5,148.167 240.5,148.5C 239.842,147.602 239.176,146.602 238.5,145.5C 237.511,149.107 237.177,152.774 237.5,156.5C 236.686,154.369 236.186,152.036 236,149.5C 235.503,156.503 234.837,156.837 234,150.5C 233.366,156.134 232.866,156.468 232.5,151.5C 231.2,144.25 230.534,136.916 230.5,129.5C 231.222,129.918 231.722,130.584 232,131.5C 232.333,135.167 232.667,138.833 233,142.5C 233.333,140.833 233.667,139.167 234,137.5C 234.333,140.167 234.667,142.833 235,145.5C 235.333,143.167 235.667,140.833 236,138.5C 236.333,139.167 236.667,139.833 237,140.5C 237.5,138.5 238,136.5 238.5,134.5C 236.941,133.135 235.941,130.801 235.5,127.5C 234.337,121.863 234.17,116.196 235,110.5C 235.333,112.833 235.667,115.167 236,117.5C 236.853,115.875 237.853,115.542 239,116.5C 239.333,120.833 239.667,125.167 240,129.5C 241.244,126.362 241.911,123.028 242,119.5C 242.716,117.121 243.883,115.121 245.5,113.5 Z"/></g>
<g><path style="opacity:1" fill="#4f1d0a" d="M 166.5,114.5 C 166.5,115.5 166.5,116.5 166.5,117.5C 166.5,117.833 166.5,118.167 166.5,118.5C 165.2,117.892 163.867,117.225 162.5,116.5C 159.922,116.615 158.422,117.949 158,120.5C 157.768,119.263 157.268,118.263 156.5,117.5C 159.505,115.723 162.838,114.723 166.5,114.5 Z"/></g>
<g><path style="opacity:1" fill="#813612" d="M 166.5,118.5 C 166.5,118.833 166.5,119.167 166.5,119.5C 161.874,121.043 157.207,122.376 152.5,123.5C 148.889,123.044 145.556,123.711 142.5,125.5C 141.893,125.376 141.56,125.043 141.5,124.5C 142.338,124.158 142.672,123.492 142.5,122.5C 145.549,121.643 148.549,121.643 151.5,122.5C 152.578,120.539 153.911,118.872 155.5,117.5C 155.833,117.5 156.167,117.5 156.5,117.5C 157.268,118.263 157.768,119.263 158,120.5C 158.422,117.949 159.922,116.615 162.5,116.5C 163.867,117.225 165.2,117.892 166.5,118.5 Z"/></g>
<g><path style="opacity:1" fill="#541f0a" d="M 155.5,117.5 C 153.911,118.872 152.578,120.539 151.5,122.5C 148.549,121.643 145.549,121.643 142.5,122.5C 146.68,120.658 151.013,118.992 155.5,117.5 Z"/></g>
<g><path style="opacity:1" fill="#b45e23" d="M 189.5,115.5 C 190.19,121.81 190.524,128.143 190.5,134.5C 190.5,138.167 190.5,141.833 190.5,145.5C 190.666,152.841 190.5,160.174 190,167.5C 189.938,150.451 189.104,133.451 187.5,116.5C 187.16,124.449 187.16,132.449 187.5,140.5C 186.833,138.167 186.167,135.833 185.5,133.5C 185.768,131.901 185.434,130.568 184.5,129.5C 184.5,128.833 184.5,128.167 184.5,127.5C 184.323,124.016 183.323,121.016 181.5,118.5C 181.167,118.5 180.833,118.5 180.5,118.5C 180.167,118.5 179.833,118.5 179.5,118.5C 182.505,116.723 185.838,115.723 189.5,115.5 Z"/></g>
<g><path style="opacity:1" fill="#984719" d="M 198.5,111.5 C 198.5,114.167 198.5,116.833 198.5,119.5C 198.239,123.342 198.906,127.009 200.5,130.5C 200.137,131.183 199.804,131.85 199.5,132.5C 198.454,135.728 197.788,139.061 197.5,142.5C 196.789,134.809 196.122,126.976 195.5,119C 196.707,117.7 197.374,116.2 197.5,114.5C 194.833,114.833 192.167,115.167 189.5,115.5C 192.256,113.796 195.256,112.463 198.5,111.5 Z"/></g>
<g><path style="opacity:1" fill="#a24e1d" d="M 209.5,108.5 C 210.5,108.5 211.5,108.5 212.5,108.5C 212.5,110.5 212.5,112.5 212.5,114.5C 212.5,121.167 212.5,127.833 212.5,134.5C 211.686,136.631 211.186,138.964 211,141.5C 210.586,141.957 210.086,142.291 209.5,142.5C 208.35,131.696 207.35,121.029 206.5,110.5C 205.833,110.5 205.5,110.833 205.5,111.5C 203.833,111.5 202.167,111.5 200.5,111.5C 203.084,109.528 206.084,108.528 209.5,108.5 Z"/></g>
<g><path style="opacity:1" fill="#8b350f" d="M 199.5,111.5 C 199.833,111.5 200.167,111.5 200.5,111.5C 202.167,111.5 203.833,111.5 205.5,111.5C 205.5,118.5 205.5,125.5 205.5,132.5C 204.835,134.698 204.168,137.031 203.5,139.5C 202.833,139.167 202.167,138.833 201.5,138.5C 200.831,136.369 200.165,134.369 199.5,132.5C 199.804,131.85 200.137,131.183 200.5,130.5C 198.906,127.009 198.239,123.342 198.5,119.5C 199.222,119.918 199.722,120.584 200,121.5C 200.747,118.076 200.58,114.743 199.5,111.5 Z"/></g>
<g><path style="opacity:1" fill="#94451b" d="M 152.5,123.5 C 140.526,128.585 128.193,132.919 115.5,136.5C 115.511,134.983 116.177,133.816 117.5,133C 122.14,131.908 126.807,130.908 131.5,130C 132.94,126.612 135.273,125.445 138.5,126.5C 139.739,126.058 140.739,125.391 141.5,124.5C 141.56,125.043 141.893,125.376 142.5,125.5C 145.556,123.711 148.889,123.044 152.5,123.5 Z"/></g>
<g><path style="opacity:1" fill="#89370f" d="M 181.5,118.5 C 183.323,121.016 184.323,124.016 184.5,127.5C 183.761,127.369 183.094,127.536 182.5,128C 181.915,129.302 181.249,130.469 180.5,131.5C 180.927,127.176 181.261,122.842 181.5,118.5 Z"/></g>
<g><path style="opacity:1" fill="#b3673a" d="M 155.5,126.5 C 155.027,127.906 154.027,128.573 152.5,128.5C 151.5,128.833 150.833,129.5 150.5,130.5C 148.5,130.5 146.5,130.5 144.5,130.5C 147.939,128.796 151.605,127.462 155.5,126.5 Z"/></g>
<g><path style="opacity:1" fill="#63270c" d="M 142.5,122.5 C 142.672,123.492 142.338,124.158 141.5,124.5C 140.739,125.391 139.739,126.058 138.5,126.5C 135.273,125.445 132.94,126.612 131.5,130C 126.807,130.908 122.14,131.908 117.5,133C 116.177,133.816 115.511,134.983 115.5,136.5C 112.15,136.335 108.817,136.502 105.5,137C 104.78,139.122 103.613,139.622 102,138.5C 97.2972,140.042 92.6305,141.708 88,143.5C 87.3292,142.748 86.4959,142.414 85.5,142.5C 104.164,135.078 123.164,128.411 142.5,122.5 Z"/></g>
<g><path style="opacity:1" fill="#a8592a" d="M 144.5,130.5 C 144.737,131.791 144.404,132.791 143.5,133.5C 142.06,134.363 140.726,134.363 139.5,133.5C 138.749,134.376 138.249,135.376 138,136.5C 137.311,135.643 136.478,134.977 135.5,134.5C 132.68,135.654 130.014,136.987 127.5,138.5C 127.158,137.662 126.492,137.328 125.5,137.5C 131.596,134.718 137.93,132.385 144.5,130.5 Z"/></g>
<g><path style="opacity:1" fill="#ab5a20" d="M 225.5,122.5 C 226.018,125.979 227.018,129.312 228.5,132.5C 229.092,138.905 230.092,145.238 231.5,151.5C 231.768,153.099 231.434,154.432 230.5,155.5C 229.096,150.015 227.929,144.349 227,138.5C 225.984,137.366 225.317,137.699 225,139.5C 224.505,141.473 224.338,143.473 224.5,145.5C 223.84,144.036 223.507,142.369 223.5,140.5C 224.491,135.203 225.158,129.87 225.5,124.5C 225.5,123.833 225.5,123.167 225.5,122.5 Z"/></g>
<g><path style="opacity:1" fill="#a14b19" d="M 178.5,118.5 C 176.514,133.201 174.681,147.867 173,162.5C 176.483,148.006 178.983,133.339 180.5,118.5C 180.833,118.5 181.167,118.5 181.5,118.5C 181.261,122.842 180.927,127.176 180.5,131.5C 180.688,137.888 180.188,144.222 179,150.5C 177.162,157.187 175.329,163.854 173.5,170.5C 172.105,165.339 171.271,160.005 171,154.5C 171.906,157.121 172.406,156.954 172.5,154C 171.841,151.538 171.507,149.038 171.5,146.5C 172.268,147.263 172.768,148.263 173,149.5C 174.29,144.89 174.624,140.223 174,135.5C 173.333,146.167 172.667,146.167 172,135.5C 171.103,139.414 170.603,139.248 170.5,135C 170.922,130.669 171.755,130.502 173,134.5C 173.167,133.833 173.333,133.167 173.5,132.5C 172.698,129.551 172.364,126.551 172.5,123.5C 169.545,124.159 166.545,124.492 163.5,124.5C 163.66,126.199 163.494,127.866 163,129.5C 162.667,129.167 162.333,128.833 162,128.5C 161.667,129.833 161.333,131.167 161,132.5C 160.764,130.881 159.931,129.881 158.5,129.5C 158.737,128.209 158.404,127.209 157.5,126.5C 164.144,123.06 171.144,120.394 178.5,118.5 Z"/></g>
<g><path style="opacity:1" fill="#954f24" d="M 115.5,136.5 C 105.787,140.768 95.7868,144.435 85.5,147.5C 84.5655,146.432 84.2322,145.099 84.5,143.5C 85.1667,143.5 85.5,143.167 85.5,142.5C 86.4959,142.414 87.3292,142.748 88,143.5C 92.6305,141.708 97.2972,140.042 102,138.5C 103.613,139.622 104.78,139.122 105.5,137C 108.817,136.502 112.15,136.335 115.5,136.5 Z"/></g>
<g><path style="opacity:1" fill="#86320d" d="M 155.5,126.5 C 156.167,126.5 156.833,126.5 157.5,126.5C 157.5,132.5 157.5,138.5 157.5,144.5C 156.676,148.312 156.176,152.312 156,156.5C 155.333,155.167 154.667,153.833 154,152.5C 153.771,144.453 153.271,136.453 152.5,128.5C 154.027,128.573 155.027,127.906 155.5,126.5 Z"/></g>
<g><path style="opacity:1" fill="#77280a" d="M 228.5,113.5 C 228.899,117.011 229.566,120.344 230.5,123.5C 230.5,125.5 230.5,127.5 230.5,129.5C 230.534,136.916 231.2,144.25 232.5,151.5C 232.167,151.5 231.833,151.5 231.5,151.5C 230.092,145.238 229.092,138.905 228.5,132.5C 227.274,126.024 227.274,119.691 228.5,113.5 Z"/></g>
<g><path style="opacity:1" fill="#693211" d="M 85.5,142.5 C 85.5,143.167 85.1667,143.5 84.5,143.5C 81.7283,144.222 79.7283,145.889 78.5,148.5C 76.7367,148.694 74.9033,148.694 73,148.5C 72.6827,150.301 72.016,150.634 71,149.5C 66.7277,152.339 62.2277,154.339 57.5,155.5C 53.6224,155.719 49.9558,156.719 46.5,158.5C 45.4376,159.425 45.4376,160.425 46.5,161.5C 45.7321,162.263 45.2321,163.263 45,164.5C 42.0653,161.84 41.8986,159.174 44.5,156.5C 57.9268,151.386 71.5934,146.719 85.5,142.5 Z"/></g>
<g><path style="opacity:1" fill="#87310d" d="M 144.5,130.5 C 146.5,130.5 148.5,130.5 150.5,130.5C 150.324,135.88 150.658,141.213 151.5,146.5C 151.699,149.941 151.199,153.274 150,156.5C 149.333,155.833 148.667,155.167 148,154.5C 147.103,150.226 145.603,146.226 143.5,142.5C 143.737,139.937 144.237,139.937 145,142.5C 145.374,141.584 145.874,140.75 146.5,140C 144.835,138.174 143.835,136.007 143.5,133.5C 144.404,132.791 144.737,131.791 144.5,130.5 Z"/></g>
<g><path style="opacity:1" fill="#88360e" d="M 125.5,137.5 C 126.492,137.328 127.158,137.662 127.5,138.5C 126.504,138.414 125.671,138.748 125,139.5C 123.076,143.644 121.743,147.977 121,152.5C 120,153.5 119,154.5 118,155.5C 116.95,159.803 116.116,164.137 115.5,168.5C 115.149,171.238 114.482,173.904 113.5,176.5C 113.846,177.696 114.346,177.696 115,176.5C 115.494,178.134 115.66,179.801 115.5,181.5C 119.5,182.167 119.5,182.833 115.5,183.5C 114.432,182.566 113.099,182.232 111.5,182.5C 112.057,178.825 112.724,175.159 113.5,171.5C 112.149,169.588 111.482,167.422 111.5,165C 111.905,158.482 112.905,152.149 114.5,146C 114.167,144.833 113.833,143.667 113.5,142.5C 111.978,145.629 111.145,148.963 111,152.5C 110.617,151.944 110.117,151.611 109.5,151.5C 109.5,149.167 109.5,146.833 109.5,144.5C 109.5,143.833 109.5,143.167 109.5,142.5C 114.701,140.433 120.034,138.767 125.5,137.5 Z"/></g>
<g><path style="opacity:1" fill="#651805" d="M 184.5,127.5 C 184.5,128.167 184.5,128.833 184.5,129.5C 185.217,136.822 184.217,143.822 181.5,150.5C 179.863,160.083 177.196,169.417 173.5,178.5C 172.503,175.995 172.503,173.328 173.5,170.5C 175.329,163.854 177.162,157.187 179,150.5C 180.188,144.222 180.688,137.888 180.5,131.5C 181.249,130.469 181.915,129.302 182.5,128C 183.094,127.536 183.761,127.369 184.5,127.5 Z"/></g>
<g><path style="opacity:1" fill="#b06c3a" d="M 109.5,142.5 C 109.5,143.167 109.5,143.833 109.5,144.5C 104.777,145.37 100.444,147.036 96.5,149.5C 94.8333,149.5 93.1667,149.5 91.5,149.5C 91.6107,148.883 91.944,148.383 92.5,148C 98.1875,146.152 103.854,144.319 109.5,142.5 Z"/></g>
<g><path style="opacity:1" fill="#924116" d="M 206.5,110.5 C 207.35,121.029 208.35,131.696 209.5,142.5C 210.086,142.291 210.586,141.957 211,141.5C 211.186,138.964 211.686,136.631 212.5,134.5C 212.666,144.839 212.5,155.172 212,165.5C 209.633,171.973 207.8,171.973 206.5,165.5C 206.5,147.167 206.5,128.833 206.5,110.5 Z"/></g>
<g><path style="opacity:1" fill="#a4622f" d="M 84.5,143.5 C 84.2322,145.099 84.5655,146.432 85.5,147.5C 76.4661,150.994 67.1328,153.994 57.5,156.5C 57.5,156.167 57.5,155.833 57.5,155.5C 62.2277,154.339 66.7277,152.339 71,149.5C 72.016,150.634 72.6827,150.301 73,148.5C 74.9033,148.694 76.7367,148.694 78.5,148.5C 79.7283,145.889 81.7283,144.222 84.5,143.5 Z"/></g>
<g><path style="opacity:1" fill="#974719" d="M 222.5,107.5 C 223.141,113.358 224.141,119.025 225.5,124.5C 225.158,129.87 224.491,135.203 223.5,140.5C 223.507,142.369 223.84,144.036 224.5,145.5C 224.343,146.873 224.51,148.207 225,149.5C 225.667,148.167 226.333,148.167 227,149.5C 227.494,151.134 227.66,152.801 227.5,154.5C 226.71,153.391 226.21,152.058 226,150.5C 224.699,152.365 224.365,154.365 225,156.5C 226.107,155.288 226.607,155.621 226.5,157.5C 225.599,158.29 224.932,159.29 224.5,160.5C 222.83,164.432 221.164,168.432 219.5,172.5C 219.058,166.209 218.891,159.875 219,153.5C 218.667,156.167 218.333,158.833 218,161.5C 217.11,155.854 216.11,155.521 215,160.5C 214.5,153.174 214.334,145.841 214.5,138.5C 214.5,128.167 214.5,117.833 214.5,107.5C 217.025,106.108 219.192,106.442 221,108.5C 221.333,107.167 221.667,105.833 222,104.5C 222.483,105.448 222.649,106.448 222.5,107.5 Z"/></g>
<g><path style="opacity:1" fill="#87300c" d="M 171.5,146.5 C 170.262,150.619 169.429,154.953 169,159.5C 168.333,157.5 167.667,155.5 167,153.5C 165.065,156.907 164.232,160.574 164.5,164.5C 162.876,164.64 161.71,163.973 161,162.5C 160.4,157.319 159.566,152.319 158.5,147.5C 158.5,141.5 158.5,135.5 158.5,129.5C 159.931,129.881 160.764,130.881 161,132.5C 161.333,131.167 161.667,129.833 162,128.5C 162.333,128.833 162.667,129.167 163,129.5C 163.494,127.866 163.66,126.199 163.5,124.5C 166.545,124.492 169.545,124.159 172.5,123.5C 172.364,126.551 172.698,129.551 173.5,132.5C 173.333,133.167 173.167,133.833 173,134.5C 171.755,130.502 170.922,130.669 170.5,135C 170.603,139.248 171.103,139.414 172,135.5C 172.667,146.167 173.333,146.167 174,135.5C 174.624,140.223 174.29,144.89 173,149.5C 172.768,148.263 172.268,147.263 171.5,146.5 Z"/></g>
<g><path style="opacity:1" fill="#752408" d="M 178.5,118.5 C 178.833,118.5 179.167,118.5 179.5,118.5C 179.833,118.5 180.167,118.5 180.5,118.5C 178.983,133.339 176.483,148.006 173,162.5C 174.681,147.867 176.514,133.201 178.5,118.5 Z"/></g>
<g><path style="opacity:1" fill="#7b2c0b" d="M 143.5,133.5 C 143.835,136.007 144.835,138.174 146.5,140C 145.874,140.75 145.374,141.584 145,142.5C 144.237,139.937 143.737,139.937 143.5,142.5C 145.603,146.226 147.103,150.226 148,154.5C 148.667,155.167 149.333,155.833 150,156.5C 151.199,153.274 151.699,149.941 151.5,146.5C 152.167,154.5 152.833,162.5 153.5,170.5C 154.166,178.804 154.833,187.137 155.5,195.5C 153.701,196.788 152.035,196.788 150.5,195.5C 150.945,189.917 150.611,184.251 149.5,178.5C 148.572,170.722 147.239,163.056 145.5,155.5C 146.836,153.625 146.336,152.292 144,151.5C 143.383,152.449 143.549,153.282 144.5,154C 143.216,154.684 142.049,154.517 141,153.5C 139.956,151.285 139.29,148.952 139,146.5C 138.667,146.833 138.333,147.167 138,147.5C 137.365,146.034 136.531,144.7 135.5,143.5C 138,140.938 137.667,138.605 134.5,136.5C 131.979,138.26 131.146,140.593 132,143.5C 132.654,142.304 133.154,142.304 133.5,143.5C 130.672,147.198 131.005,147.865 134.5,145.5C 136.139,146.916 136.973,148.583 137,150.5C 134.071,146.653 132.071,147.319 131,152.5C 130.667,151.833 130.333,151.167 130,150.5C 128.187,155.613 126.187,160.613 124,165.5C 124.967,158.336 126.467,151.17 128.5,144C 128.149,140.896 127.649,141.063 127,144.5C 126.667,143.833 126.333,143.167 126,142.5C 126,144.5 126,146.5 126,148.5C 125.333,147.167 124.667,145.833 124,144.5C 123.709,146.783 124.209,148.95 125.5,151C 124.391,153.047 123.724,155.213 123.5,157.5C 122.07,157.579 120.736,157.246 119.5,156.5C 117.945,160.131 117.612,163.797 118.5,167.5C 119.584,166.335 120.417,165.002 121,163.5C 121.5,164 122,164.5 122.5,165C 121.37,167.428 119.87,169.595 118,171.5C 117.764,169.881 116.931,168.881 115.5,168.5C 116.116,164.137 116.95,159.803 118,155.5C 119,154.5 120,153.5 121,152.5C 121.743,147.977 123.076,143.644 125,139.5C 125.671,138.748 126.504,138.414 127.5,138.5C 130.014,136.987 132.68,135.654 135.5,134.5C 136.478,134.977 137.311,135.643 138,136.5C 138.249,135.376 138.749,134.376 139.5,133.5C 140.726,134.363 142.06,134.363 143.5,133.5 Z"/></g>
<g><path style="opacity:1" fill="#b16b32" d="M 227.5,154.5 C 228.782,155.708 228.782,157.042 227.5,158.5C 226.893,158.376 226.56,158.043 226.5,157.5C 226.607,155.621 226.107,155.288 225,156.5C 224.365,154.365 224.699,152.365 226,150.5C 226.21,152.058 226.71,153.391 227.5,154.5 Z"/></g>
<g><path style="opacity:1" fill="#b8783f" d="M 84.5,151.5 C 82.8217,154.552 82.155,157.885 82.5,161.5C 82.6495,162.552 82.4828,163.552 82,164.5C 81.5065,162.866 81.3398,161.199 81.5,159.5C 80.5,159.5 79.5,159.5 78.5,159.5C 78.5,157.833 78.5,156.167 78.5,154.5C 77.5,154.5 76.5,154.5 75.5,154.5C 78.4915,153.629 81.4915,152.629 84.5,151.5 Z"/></g>
<g><path style="opacity:1" fill="#7f310f" d="M 89.5,150.5 C 90.7947,151.545 92.128,152.545 93.5,153.5C 91.3283,160.397 89.6617,167.397 88.5,174.5C 88.1667,174.5 87.8333,174.5 87.5,174.5C 87.0862,172.192 86.7529,169.858 86.5,167.5C 87.9172,161.944 88.9172,156.278 89.5,150.5 Z"/></g>
<g><path style="opacity:1" fill="#9a4313" d="M 185.5,133.5 C 186.167,135.833 186.833,138.167 187.5,140.5C 188.579,158.521 188.579,171.188 187.5,178.5C 186.139,163.534 185.472,148.534 185.5,133.5 Z"/></g>
<g><path style="opacity:1" fill="#6f240a" d="M 152.5,128.5 C 153.271,136.453 153.771,144.453 154,152.5C 154.667,153.833 155.333,155.167 156,156.5C 156.176,152.312 156.676,148.312 157.5,144.5C 157.91,153.25 157.41,161.916 156,170.5C 154.194,157.304 153.361,157.304 153.5,170.5C 152.833,162.5 152.167,154.5 151.5,146.5C 150.658,141.213 150.324,135.88 150.5,130.5C 150.833,129.5 151.5,128.833 152.5,128.5 Z"/></g>
<g><path style="opacity:1" fill="#732a0b" d="M 199.5,132.5 C 200.165,134.369 200.831,136.369 201.5,138.5C 202.167,138.833 202.833,139.167 203.5,139.5C 204.168,137.031 204.835,134.698 205.5,132.5C 205.142,150.166 204.809,167.833 204.5,185.5C 203.559,182.875 202.393,182.875 201,185.5C 200.333,184.167 199.667,182.833 199,181.5C 197.605,182.815 196.605,182.481 196,180.5C 196.333,184.167 196.667,187.833 197,191.5C 195.956,190.377 195.29,189.044 195,187.5C 193.916,188.665 193.083,189.998 192.5,191.5C 192.846,192.696 193.346,192.696 194,191.5C 194.687,197.204 194.521,202.87 193.5,208.5C 197.136,209.326 200.803,209.992 204.5,210.5C 204.799,212.604 204.466,214.604 203.5,216.5C 202.738,215.372 202.071,214.205 201.5,213C 198.551,212.573 195.717,211.739 193,210.5C 191.893,210.585 190.893,210.919 190,211.5C 189.536,210.906 189.369,210.239 189.5,209.5C 191.355,209.728 192.188,209.061 192,207.5C 190.644,206.62 189.144,206.286 187.5,206.5C 188.466,200.838 189.633,195.172 191,189.5C 192.071,187.854 192.904,186.188 193.5,184.5C 192.633,177.4 192.633,170.4 193.5,163.5C 195.31,156.594 196.643,149.594 197.5,142.5C 197.788,139.061 198.454,135.728 199.5,132.5 Z"/></g>
<g><path style="opacity:1" fill="#8d4517" d="M 57.5,155.5 C 57.5,155.833 57.5,156.167 57.5,156.5C 56.5,156.5 55.5,156.5 54.5,156.5C 54.5,157.5 54.5,158.5 54.5,159.5C 57.1667,159.5 59.8333,159.5 62.5,159.5C 61.6993,161.042 61.366,162.708 61.5,164.5C 56.3945,163.962 51.3945,162.962 46.5,161.5C 45.4376,160.425 45.4376,159.425 46.5,158.5C 49.9558,156.719 53.6224,155.719 57.5,155.5 Z"/></g>
<g><path style="opacity:1" fill="#ae662d" d="M 89.5,149.5 C 89.5,149.833 89.5,150.167 89.5,150.5C 88.9172,156.278 87.9172,161.944 86.5,167.5C 86.7529,169.858 87.0862,172.192 87.5,174.5C 86.8333,177.167 86.1667,177.167 85.5,174.5C 85.2012,167.109 85.5345,159.776 86.5,152.5C 86.0431,151.702 85.3764,151.369 84.5,151.5C 86.0276,150.691 87.6943,150.024 89.5,149.5 Z"/></g>
<g><path style="opacity:1" fill="#893f17" d="M 109.5,144.5 C 109.5,146.833 109.5,149.167 109.5,151.5C 109.5,160.167 109.5,168.833 109.5,177.5C 105.047,176.758 100.714,175.758 96.5,174.5C 96.8309,168.146 96.8309,159.812 96.5,149.5C 100.444,147.036 104.777,145.37 109.5,144.5 Z"/></g>
<g><path style="opacity:1" fill="#8a3b16" d="M 84.5,151.5 C 85.3764,151.369 86.0431,151.702 86.5,152.5C 85.5345,159.776 85.2012,167.109 85.5,174.5C 84.6618,174.842 84.3284,175.508 84.5,176.5C 83.1667,176.5 82.5,175.833 82.5,174.5C 83.8333,170.167 83.8333,165.833 82.5,161.5C 82.155,157.885 82.8217,154.552 84.5,151.5 Z"/></g>
<g><path style="opacity:1" fill="#782307" d="M 230.5,155.5 C 231.331,159.476 231.497,163.476 231,167.5C 230.027,165.608 229.36,163.608 229,161.5C 228.51,162.793 228.343,164.127 228.5,165.5C 227.167,165.5 225.833,165.5 224.5,165.5C 224.5,166.5 224.5,167.5 224.5,168.5C 223.233,165.939 223.233,163.272 224.5,160.5C 224.932,159.29 225.599,158.29 226.5,157.5C 226.56,158.043 226.893,158.376 227.5,158.5C 228.782,157.042 228.782,155.708 227.5,154.5C 227.66,152.801 227.494,151.134 227,149.5C 226.333,148.167 225.667,148.167 225,149.5C 224.51,148.207 224.343,146.873 224.5,145.5C 224.338,143.473 224.505,141.473 225,139.5C 225.317,137.699 225.984,137.366 227,138.5C 227.929,144.349 229.096,150.015 230.5,155.5 Z"/></g>
<g><path style="opacity:1" fill="#924114" d="M 75.5,154.5 C 76.5,154.5 77.5,154.5 78.5,154.5C 78.5,156.167 78.5,157.833 78.5,159.5C 78.6646,162.518 78.498,165.518 78,168.5C 75.8215,167.16 75.3215,167.493 76.5,169.5C 75.5,169.5 74.5,169.5 73.5,169.5C 73.8064,166.615 73.4731,163.948 72.5,161.5C 72.2587,159.114 72.9254,157.114 74.5,155.5C 74.5,154.833 74.8333,154.5 75.5,154.5 Z"/></g>
<g><path style="opacity:1" fill="#54270f" d="M 44.5,156.5 C 41.8986,159.174 42.0653,161.84 45,164.5C 45.2321,163.263 45.7321,162.263 46.5,161.5C 50.7223,164.686 55.5556,166.686 61,167.5C 62.0111,166.944 62.8444,166.278 63.5,165.5C 63.5569,166.609 63.8902,167.609 64.5,168.5C 65.4551,170.71 66.9551,171.043 69,169.5C 69.3742,170.416 69.8742,171.25 70.5,172C 74.3197,174.451 78.3197,175.284 82.5,174.5C 82.5,175.833 83.1667,176.5 84.5,176.5C 85.5203,177.954 86.687,178.287 88,177.5C 91.1631,179.438 94.6631,180.438 98.5,180.5C 102.127,182.38 105.793,183.047 109.5,182.5C 109.5,182.833 109.5,183.167 109.5,183.5C 109.38,184.586 108.713,185.253 107.5,185.5C 103.627,183.891 99.6272,182.891 95.5,182.5C 74.3929,175.853 53.3929,168.686 32.5,161C 36.1728,158.665 40.1728,157.165 44.5,156.5 Z"/></g>
<g><path style="opacity:1" fill="#763310" d="M 62.5,159.5 C 63.4614,161.265 63.7947,163.265 63.5,165.5C 62.8444,166.278 62.0111,166.944 61,167.5C 55.5556,166.686 50.7223,164.686 46.5,161.5C 51.3945,162.962 56.3945,163.962 61.5,164.5C 61.366,162.708 61.6993,161.042 62.5,159.5 Z"/></g>
<g><path style="opacity:1" fill="#782e0b" d="M 171.5,146.5 C 171.507,149.038 171.841,151.538 172.5,154C 172.406,156.954 171.906,157.121 171,154.5C 171.271,160.005 172.105,165.339 173.5,170.5C 172.503,173.328 172.503,175.995 173.5,178.5C 173.337,180.857 173.503,183.19 174,185.5C 174.232,184.263 174.732,183.263 175.5,182.5C 173.382,199.675 172.215,199.675 172,182.5C 171.554,189.189 170.887,195.856 170,202.5C 166.147,201.114 162.313,199.781 158.5,198.5C 158.5,181.5 158.5,164.5 158.5,147.5C 159.566,152.319 160.4,157.319 161,162.5C 161.71,163.973 162.876,164.64 164.5,164.5C 164.232,160.574 165.065,156.907 167,153.5C 167.667,155.5 168.333,157.5 169,159.5C 169.429,154.953 170.262,150.619 171.5,146.5 Z"/></g>
<g><path style="opacity:1" fill="#9d5727" d="M 74.5,155.5 C 72.9254,157.114 72.2587,159.114 72.5,161.5C 72.8174,164.572 72.4841,167.572 71.5,170.5C 69.4775,168.827 67.1441,168.16 64.5,168.5C 63.8902,167.609 63.5569,166.609 63.5,165.5C 63.7947,163.265 63.4614,161.265 62.5,159.5C 59.8333,159.5 57.1667,159.5 54.5,159.5C 54.5,158.5 54.5,157.5 54.5,156.5C 55.5,156.5 56.5,156.5 57.5,156.5C 57.3893,157.117 57.056,157.617 56.5,158C 57.8333,158.167 59.1667,158.333 60.5,158.5C 65.1761,157.496 69.8427,156.496 74.5,155.5 Z"/></g>
<g><path style="opacity:1" fill="#7f3c17" d="M 72.5,161.5 C 73.4731,163.948 73.8064,166.615 73.5,169.5C 74.5,169.5 75.5,169.5 76.5,169.5C 76.6854,171.196 77.5187,172.529 79,173.5C 79.9651,163.233 81.1318,163.566 82.5,174.5C 78.3197,175.284 74.3197,174.451 70.5,172C 69.8742,171.25 69.3742,170.416 69,169.5C 66.9551,171.043 65.4551,170.71 64.5,168.5C 67.1441,168.16 69.4775,168.827 71.5,170.5C 72.4841,167.572 72.8174,164.572 72.5,161.5 Z"/></g>
<g><path style="opacity:1" fill="#9d5829" d="M 78.5,159.5 C 79.5,159.5 80.5,159.5 81.5,159.5C 81.3398,161.199 81.5065,162.866 82,164.5C 82.4828,163.552 82.6495,162.552 82.5,161.5C 83.8333,165.833 83.8333,170.167 82.5,174.5C 81.1318,163.566 79.9651,163.233 79,173.5C 77.5187,172.529 76.6854,171.196 76.5,169.5C 75.3215,167.493 75.8215,167.16 78,168.5C 78.498,165.518 78.6646,162.518 78.5,159.5 Z"/></g>
<g><path style="opacity:1" fill="#81320c" d="M 197.5,142.5 C 196.643,149.594 195.31,156.594 193.5,163.5C 192.633,170.4 192.633,177.4 193.5,184.5C 192.904,186.188 192.071,187.854 191,189.5C 189.633,195.172 188.466,200.838 187.5,206.5C 189.144,206.286 190.644,206.62 192,207.5C 192.188,209.061 191.355,209.728 189.5,209.5C 188.833,209.167 188.167,208.833 187.5,208.5C 186.596,207.791 186.263,206.791 186.5,205.5C 186.173,196.318 186.507,187.318 187.5,178.5C 188.579,171.188 188.579,158.521 187.5,140.5C 187.16,132.449 187.16,124.449 187.5,116.5C 189.104,133.451 189.938,150.451 190,167.5C 190.5,160.174 190.666,152.841 190.5,145.5C 191.326,150.316 191.826,155.316 192,160.5C 192.901,151.184 193.568,141.85 194,132.5C 194.333,135.167 194.667,137.833 195,140.5C 195.513,134.135 195.179,127.801 194,121.5C 193.187,129.167 192.521,128.834 192,120.5C 191.945,128.169 191.945,135.836 192,143.5C 191.819,140.305 191.319,137.305 190.5,134.5C 190.524,128.143 190.19,121.81 189.5,115.5C 192.167,115.167 194.833,114.833 197.5,114.5C 197.374,116.2 196.707,117.7 195.5,119C 196.122,126.976 196.789,134.809 197.5,142.5 Z"/></g>
<g><path style="opacity:1" fill="#a04917" d="M 190.5,145.5 C 190.5,141.833 190.5,138.167 190.5,134.5C 191.319,137.305 191.819,140.305 192,143.5C 191.945,135.836 191.945,128.169 192,120.5C 192.521,128.834 193.187,129.167 194,121.5C 195.179,127.801 195.513,134.135 195,140.5C 194.667,137.833 194.333,135.167 194,132.5C 193.568,141.85 192.901,151.184 192,160.5C 191.826,155.316 191.326,150.316 190.5,145.5 Z"/></g>
<g><path style="opacity:1" fill="#8a4217" d="M 237.5,156.5 C 238.894,165.311 239.894,174.311 240.5,183.5C 240.48,184.726 240.147,185.726 239.5,186.5C 238.883,186.389 238.383,186.056 238,185.5C 237.24,191.721 238.073,197.721 240.5,203.5C 240.335,206.518 240.502,209.518 241,212.5C 242.717,211.612 243.884,212.279 244.5,214.5C 243.94,218.089 242.773,221.422 241,224.5C 239.601,223.773 238.101,223.273 236.5,223C 234.456,222.502 233.122,221.335 232.5,219.5C 235.107,207.814 235.107,195.981 232.5,184C 232.944,182.238 233.444,182.405 234,184.5C 234.333,186.167 234.667,187.833 235,189.5C 235.312,184.731 234.645,180.065 233,175.5C 232.667,176.833 232.333,178.167 232,179.5C 231.737,174.983 230.737,170.649 229,166.5C 228.667,167.5 228.333,168.5 228,169.5C 227.333,168.167 226.667,168.167 226,169.5C 224.725,171.717 223.725,174.051 223,176.5C 222.554,173.667 223.054,171.001 224.5,168.5C 224.5,167.5 224.5,166.5 224.5,165.5C 225.833,165.5 227.167,165.5 228.5,165.5C 228.343,164.127 228.51,162.793 229,161.5C 229.36,163.608 230.027,165.608 231,167.5C 231.497,163.476 231.331,159.476 230.5,155.5C 231.434,154.432 231.768,153.099 231.5,151.5C 231.833,151.5 232.167,151.5 232.5,151.5C 232.866,156.468 233.366,156.134 234,150.5C 234.837,156.837 235.503,156.503 236,149.5C 236.186,152.036 236.686,154.369 237.5,156.5 Z"/></g>
<g><path style="opacity:1" fill="#732607" d="M 184.5,129.5 C 185.434,130.568 185.768,131.901 185.5,133.5C 185.472,148.534 186.139,163.534 187.5,178.5C 186.507,187.318 186.173,196.318 186.5,205.5C 186.167,205.5 185.833,205.5 185.5,205.5C 185.5,199.833 185.5,194.167 185.5,188.5C 185.814,175.411 184.981,162.411 183,149.5C 182.617,150.056 182.117,150.389 181.5,150.5C 184.217,143.822 185.217,136.822 184.5,129.5 Z"/></g>
<g><path style="opacity:1" fill="#793210" d="M 224.5,160.5 C 223.233,163.272 223.233,165.939 224.5,168.5C 223.054,171.001 222.554,173.667 223,176.5C 223.725,174.051 224.725,171.717 226,169.5C 226.667,168.167 227.333,168.167 228,169.5C 228.333,168.5 228.667,167.5 229,166.5C 230.737,170.649 231.737,174.983 232,179.5C 232.333,178.167 232.667,176.833 233,175.5C 234.645,180.065 235.312,184.731 235,189.5C 234.667,187.833 234.333,186.167 234,184.5C 233.444,182.405 232.944,182.238 232.5,184C 235.107,195.981 235.107,207.814 232.5,219.5C 233.385,210.513 233.552,201.513 233,192.5C 232.641,189.456 231.974,189.122 231,191.5C 229.97,187.227 229.303,182.894 229,178.5C 228.667,181.5 228.333,184.5 228,187.5C 226.539,186.117 225.706,186.451 225.5,188.5C 224.566,189.568 224.232,190.901 224.5,192.5C 223.681,195.305 223.181,198.305 223,201.5C 221.846,191.799 223.679,182.799 228.5,174.5C 228.267,173.068 227.6,172.568 226.5,173C 224.947,175.655 223.78,178.488 223,181.5C 222.131,176.492 221.464,176.825 221,182.5C 221.331,189.482 221.331,196.482 221,203.5C 220.667,202.167 220.333,200.833 220,199.5C 218.506,203.304 217.672,202.971 217.5,198.5C 218.587,189.872 219.254,181.205 219.5,172.5C 221.164,168.432 222.83,164.432 224.5,160.5 Z"/></g>
<g><path style="opacity:1" fill="#914b1f" d="M 89.5,150.5 C 89.5,150.167 89.5,149.833 89.5,149.5C 90.1667,149.5 90.8333,149.5 91.5,149.5C 93.1667,149.5 94.8333,149.5 96.5,149.5C 96.8309,159.812 96.8309,168.146 96.5,174.5C 100.714,175.758 105.047,176.758 109.5,177.5C 109.5,179.167 109.5,180.833 109.5,182.5C 105.793,183.047 102.127,182.38 98.5,180.5C 98.6309,179.624 98.2975,178.957 97.5,178.5C 94.2911,177.412 91.2911,176.079 88.5,174.5C 89.6617,167.397 91.3283,160.397 93.5,153.5C 92.128,152.545 90.7947,151.545 89.5,150.5 Z"/></g>
<g><path style="opacity:1" fill="#9d4f19" d="M 185.5,188.5 C 184.865,185.069 183.865,181.736 182.5,178.5C 182.586,177.504 182.252,176.671 181.5,176C 179.866,175.506 178.199,175.34 176.5,175.5C 176.007,177.806 175.674,180.139 175.5,182.5C 174.732,183.263 174.232,184.263 174,185.5C 173.503,183.19 173.337,180.857 173.5,178.5C 177.196,169.417 179.863,160.083 181.5,150.5C 182.117,150.389 182.617,150.056 183,149.5C 184.981,162.411 185.814,175.411 185.5,188.5 Z"/></g>
<g><path style="opacity:1" fill="#68260c" d="M 115.5,183.5 C 119.6,187.306 124.1,188.64 129,187.5C 129.333,188.167 129.667,188.833 130,189.5C 130.583,187.998 131.416,186.665 132.5,185.5C 134.214,186.609 134.881,185.942 134.5,183.5C 132.089,183.137 130.589,184.137 130,186.5C 129.228,185.151 128.061,184.318 126.5,184C 127.38,182.644 127.714,181.144 127.5,179.5C 128.5,179.5 129.5,179.5 130.5,179.5C 130.025,176.677 131.025,174.677 133.5,173.5C 134.929,175.083 136.429,175.75 138,175.5C 138.464,174.906 138.631,174.239 138.5,173.5C 139.181,171.277 140.181,169.944 141.5,169.5C 142.75,169.423 143.583,168.756 144,167.5C 145.19,171.381 145.857,175.381 146,179.5C 147.016,178.366 147.683,178.699 148,180.5C 148.278,179.584 148.778,178.918 149.5,178.5C 150.611,184.251 150.945,189.917 150.5,195.5C 146.804,195.658 143.471,194.991 140.5,193.5C 138.265,192.772 136.432,191.439 135,189.5C 134.481,190.516 133.647,191.182 132.5,191.5C 125.48,189.679 118.147,188.012 110.5,186.5C 110.737,185.209 110.404,184.209 109.5,183.5C 109.5,183.167 109.5,182.833 109.5,182.5C 109.5,180.833 109.5,179.167 109.5,177.5C 109.5,168.833 109.5,160.167 109.5,151.5C 110.117,151.611 110.617,151.944 111,152.5C 111.145,148.963 111.978,145.629 113.5,142.5C 113.833,143.667 114.167,144.833 114.5,146C 112.905,152.149 111.905,158.482 111.5,165C 111.482,167.422 112.149,169.588 113.5,171.5C 112.724,175.159 112.057,178.825 111.5,182.5C 113.099,182.232 114.432,182.566 115.5,183.5 Z"/></g>
<g><path style="opacity:1" fill="#773b17" d="M 85.5,174.5 C 86.1667,177.167 86.8333,177.167 87.5,174.5C 87.8333,174.5 88.1667,174.5 88.5,174.5C 91.2911,176.079 94.2911,177.412 97.5,178.5C 98.2975,178.957 98.6309,179.624 98.5,180.5C 94.6631,180.438 91.1631,179.438 88,177.5C 86.687,178.287 85.5203,177.954 84.5,176.5C 84.3284,175.508 84.6618,174.842 85.5,174.5 Z"/></g>
<g><path style="opacity:1" fill="#8a4a20" d="M 240.5,148.5 C 240.5,154.167 240.5,159.833 240.5,165.5C 240.587,179.035 242.92,192.035 247.5,204.5C 247.369,205.239 247.536,205.906 248,206.5C 249,205.167 250,205.167 251,206.5C 252.18,210.217 253.513,213.884 255,217.5C 255.697,219.584 256.864,221.251 258.5,222.5C 258.5,223.167 258.5,223.833 258.5,224.5C 251.582,216.549 246.248,207.549 242.5,197.5C 241.301,193.901 240.301,190.235 239.5,186.5C 240.147,185.726 240.48,184.726 240.5,183.5C 239.894,174.311 238.894,165.311 237.5,156.5C 237.177,152.774 237.511,149.107 238.5,145.5C 239.176,146.602 239.842,147.602 240.5,148.5 Z"/></g>
<g><path style="opacity:1" fill="#6f280c" d="M 149.5,178.5 C 148.778,178.918 148.278,179.584 148,180.5C 147.683,178.699 147.016,178.366 146,179.5C 145.857,175.381 145.19,171.381 144,167.5C 143.583,168.756 142.75,169.423 141.5,169.5C 140.551,168.077 139.551,166.577 138.5,165C 139.102,163.437 139.935,163.604 141,165.5C 141.004,163.632 140.504,161.798 139.5,160C 139.611,158.278 140.111,158.112 141,159.5C 141.268,157.41 140.268,156.076 138,155.5C 138.195,157.126 138.195,158.793 138,160.5C 137.125,157.785 135.292,156.452 132.5,156.5C 132.149,158.869 131.982,161.203 132,163.5C 132.576,160.876 133.91,160.209 136,161.5C 137.536,165.346 138.369,169.346 138.5,173.5C 138.631,174.239 138.464,174.906 138,175.5C 136.429,175.75 134.929,175.083 133.5,173.5C 131.025,174.677 130.025,176.677 130.5,179.5C 129.5,179.5 128.5,179.5 127.5,179.5C 127.714,181.144 127.38,182.644 126.5,184C 128.061,184.318 129.228,185.151 130,186.5C 130.589,184.137 132.089,183.137 134.5,183.5C 134.881,185.942 134.214,186.609 132.5,185.5C 131.416,186.665 130.583,187.998 130,189.5C 129.667,188.833 129.333,188.167 129,187.5C 124.1,188.64 119.6,187.306 115.5,183.5C 119.5,182.833 119.5,182.167 115.5,181.5C 115.66,179.801 115.494,178.134 115,176.5C 114.346,177.696 113.846,177.696 113.5,176.5C 114.482,173.904 115.149,171.238 115.5,168.5C 116.931,168.881 117.764,169.881 118,171.5C 119.87,169.595 121.37,167.428 122.5,165C 122,164.5 121.5,164 121,163.5C 120.417,165.002 119.584,166.335 118.5,167.5C 117.612,163.797 117.945,160.131 119.5,156.5C 120.736,157.246 122.07,157.579 123.5,157.5C 123.724,155.213 124.391,153.047 125.5,151C 124.209,148.95 123.709,146.783 124,144.5C 124.667,145.833 125.333,147.167 126,148.5C 126,146.5 126,144.5 126,142.5C 126.333,143.167 126.667,143.833 127,144.5C 127.649,141.063 128.149,140.896 128.5,144C 126.467,151.17 124.967,158.336 124,165.5C 126.187,160.613 128.187,155.613 130,150.5C 130.333,151.167 130.667,151.833 131,152.5C 132.071,147.319 134.071,146.653 137,150.5C 136.973,148.583 136.139,146.916 134.5,145.5C 131.005,147.865 130.672,147.198 133.5,143.5C 133.154,142.304 132.654,142.304 132,143.5C 131.146,140.593 131.979,138.26 134.5,136.5C 137.667,138.605 138,140.938 135.5,143.5C 136.531,144.7 137.365,146.034 138,147.5C 138.333,147.167 138.667,146.833 139,146.5C 139.29,148.952 139.956,151.285 141,153.5C 142.049,154.517 143.216,154.684 144.5,154C 143.549,153.282 143.383,152.449 144,151.5C 146.336,152.292 146.836,153.625 145.5,155.5C 147.239,163.056 148.572,170.722 149.5,178.5 Z"/></g>
<g><path style="opacity:1" fill="#803a15" d="M 141.5,169.5 C 140.181,169.944 139.181,171.277 138.5,173.5C 138.369,169.346 137.536,165.346 136,161.5C 133.91,160.209 132.576,160.876 132,163.5C 131.982,161.203 132.149,158.869 132.5,156.5C 135.292,156.452 137.125,157.785 138,160.5C 138.195,158.793 138.195,157.126 138,155.5C 140.268,156.076 141.268,157.41 141,159.5C 140.111,158.112 139.611,158.278 139.5,160C 140.504,161.798 141.004,163.632 141,165.5C 139.935,163.604 139.102,163.437 138.5,165C 139.551,166.577 140.551,168.077 141.5,169.5 Z"/></g>
<g><path style="opacity:1" fill="#7d3813" d="M 212.5,114.5 C 213.167,122.5 213.833,130.5 214.5,138.5C 214.334,145.841 214.5,153.174 215,160.5C 216.11,155.521 217.11,155.854 218,161.5C 218.333,158.833 218.667,156.167 219,153.5C 218.891,159.875 219.058,166.209 219.5,172.5C 217.561,180.436 216.394,188.769 216,197.5C 215.597,192.133 214.93,186.799 214,181.5C 212.088,191.806 212.088,202.139 214,212.5C 214.333,211.5 214.667,210.5 215,209.5C 215.494,211.134 215.66,212.801 215.5,214.5C 212.031,214.453 208.698,213.787 205.5,212.5C 206.156,196.842 206.489,181.175 206.5,165.5C 207.8,171.973 209.633,171.973 212,165.5C 212.5,155.172 212.666,144.839 212.5,134.5C 212.5,127.833 212.5,121.167 212.5,114.5 Z"/></g>
<g><path style="opacity:1" fill="#6c2709" d="M 182.5,178.5 C 184.099,186.67 183.766,194.67 181.5,202.5C 181.536,204.941 182.369,206.941 184,208.5C 185.039,207.756 185.539,206.756 185.5,205.5C 185.833,205.5 186.167,205.5 186.5,205.5C 186.263,206.791 186.596,207.791 187.5,208.5C 187.672,209.492 187.338,210.158 186.5,210.5C 186.44,209.957 186.107,209.624 185.5,209.5C 184.833,210.167 184.167,210.833 183.5,211.5C 180.512,209.578 177.512,207.911 174.5,206.5C 175.822,206.67 176.989,206.337 178,205.5C 178.966,201.882 178.466,198.549 176.5,195.5C 174.599,197.728 173.599,200.395 173.5,203.5C 172.778,203.918 172.278,204.584 172,205.5C 168.454,203.319 164.62,201.819 160.5,201C 159.619,200.292 158.953,199.458 158.5,198.5C 162.313,199.781 166.147,201.114 170,202.5C 170.887,195.856 171.554,189.189 172,182.5C 172.215,199.675 173.382,199.675 175.5,182.5C 175.674,180.139 176.007,177.806 176.5,175.5C 178.199,175.34 179.866,175.506 181.5,176C 182.252,176.671 182.586,177.504 182.5,178.5 Z"/></g>
<g><path style="opacity:1" fill="#551b06" d="M 157.5,126.5 C 158.404,127.209 158.737,128.209 158.5,129.5C 158.5,135.5 158.5,141.5 158.5,147.5C 158.5,164.5 158.5,181.5 158.5,198.5C 158.953,199.458 159.619,200.292 160.5,201C 164.62,201.819 168.454,203.319 172,205.5C 172.278,204.584 172.778,203.918 173.5,203.5C 174.11,204.391 174.443,205.391 174.5,206.5C 173.504,206.414 172.671,206.748 172,207.5C 167.675,205.794 163.175,204.794 158.5,204.5C 158.67,203.178 158.337,202.011 157.5,201C 152.186,199.97 146.853,199.137 141.5,198.5C 141.634,196.708 141.301,195.042 140.5,193.5C 143.471,194.991 146.804,195.658 150.5,195.5C 152.035,196.788 153.701,196.788 155.5,195.5C 154.833,187.137 154.166,178.804 153.5,170.5C 153.361,157.304 154.194,157.304 156,170.5C 157.41,161.916 157.91,153.25 157.5,144.5C 157.5,138.5 157.5,132.5 157.5,126.5 Z"/></g>
<g><path style="opacity:1" fill="#a86935" d="M 239.5,186.5 C 240.301,190.235 241.301,193.901 242.5,197.5C 241.778,197.082 241.278,196.416 241,195.5C 240.833,196.167 240.667,196.833 240.5,197.5C 241.839,201.185 243.172,204.851 244.5,208.5C 242.818,207.173 241.485,205.506 240.5,203.5C 238.073,197.721 237.24,191.721 238,185.5C 238.383,186.056 238.883,186.389 239.5,186.5 Z"/></g>
<g><path style="opacity:1" fill="#451b09" d="M 95.5,182.5 C 99.6272,182.891 103.627,183.891 107.5,185.5C 108.713,185.253 109.38,184.586 109.5,183.5C 110.404,184.209 110.737,185.209 110.5,186.5C 118.147,188.012 125.48,189.679 132.5,191.5C 133.647,191.182 134.481,190.516 135,189.5C 136.432,191.439 138.265,192.772 140.5,193.5C 141.301,195.042 141.634,196.708 141.5,198.5C 125.879,193.738 110.545,188.405 95.5,182.5 Z"/></g>
<g><path style="opacity:1" fill="#6f3818" d="M 240.5,165.5 C 242.372,175.484 244.705,185.484 247.5,195.5C 247.5,198.5 247.5,201.5 247.5,204.5C 242.92,192.035 240.587,179.035 240.5,165.5 Z"/></g>
<g><path style="opacity:1" fill="#86421a" d="M 232.5,219.5 C 231.175,220.953 230.342,220.619 230,218.5C 229.776,209.13 229.109,199.796 228,190.5C 227.583,189.244 226.75,188.577 225.5,188.5C 225.706,186.451 226.539,186.117 228,187.5C 228.333,184.5 228.667,181.5 229,178.5C 229.303,182.894 229.97,187.227 231,191.5C 231.974,189.122 232.641,189.456 233,192.5C 233.552,201.513 233.385,210.513 232.5,219.5 Z"/></g>
<g><path style="opacity:1" fill="#361305" d="M 141.5,198.5 C 146.853,199.137 152.186,199.97 157.5,201C 158.337,202.011 158.67,203.178 158.5,204.5C 152.623,202.876 146.957,200.876 141.5,198.5 Z"/></g>
<g><path style="opacity:1" fill="#8b4415" d="M 182.5,178.5 C 183.865,181.736 184.865,185.069 185.5,188.5C 185.5,194.167 185.5,199.833 185.5,205.5C 185.539,206.756 185.039,207.756 184,208.5C 182.369,206.941 181.536,204.941 181.5,202.5C 183.766,194.67 184.099,186.67 182.5,178.5 Z"/></g>
<g><path style="opacity:1" fill="#945321" d="M 174.5,206.5 C 174.443,205.391 174.11,204.391 173.5,203.5C 173.599,200.395 174.599,197.728 176.5,195.5C 178.466,198.549 178.966,201.882 178,205.5C 176.989,206.337 175.822,206.67 174.5,206.5 Z"/></g>
<g><path style="opacity:1" fill="#67250a" d="M 204.5,185.5 C 204.5,193.833 204.5,202.167 204.5,210.5C 200.803,209.992 197.136,209.326 193.5,208.5C 194.521,202.87 194.687,197.204 194,191.5C 193.346,192.696 192.846,192.696 192.5,191.5C 193.083,189.998 193.916,188.665 195,187.5C 195.29,189.044 195.956,190.377 197,191.5C 196.667,187.833 196.333,184.167 196,180.5C 196.605,182.481 197.605,182.815 199,181.5C 199.667,182.833 200.333,184.167 201,185.5C 202.393,182.875 203.559,182.875 204.5,185.5 Z"/></g>
<g><path style="opacity:1" fill="#5e280d" d="M 247.5,195.5 C 251.973,205.112 256.973,214.445 262.5,223.5C 261.041,223.567 259.708,223.234 258.5,222.5C 256.864,221.251 255.697,219.584 255,217.5C 253.513,213.884 252.18,210.217 251,206.5C 250,205.167 249,205.167 248,206.5C 247.536,205.906 247.369,205.239 247.5,204.5C 247.5,201.5 247.5,198.5 247.5,195.5 Z"/></g>
<g><path style="opacity:1" fill="#803e17" d="M 224.5,192.5 C 226.077,199.449 227.411,206.449 228.5,213.5C 228.167,215.5 227.833,217.5 227.5,219.5C 226.936,215.356 226.103,211.356 225,207.5C 224.502,210.817 224.335,214.15 224.5,217.5C 221.873,216.908 219.206,216.575 216.5,216.5C 216.261,213.085 216.928,209.919 218.5,207C 218.333,206.167 218.167,205.333 218,204.5C 216.956,205.623 216.29,206.956 216,208.5C 215.326,204.888 215.826,201.554 217.5,198.5C 217.672,202.971 218.506,203.304 220,199.5C 220.333,200.833 220.667,202.167 221,203.5C 221.331,196.482 221.331,189.482 221,182.5C 221.464,176.825 222.131,176.492 223,181.5C 223.78,178.488 224.947,175.655 226.5,173C 227.6,172.568 228.267,173.068 228.5,174.5C 223.679,182.799 221.846,191.799 223,201.5C 223.181,198.305 223.681,195.305 224.5,192.5 Z"/></g>
<g><path style="opacity:1" fill="#461d08" d="M 158.5,204.5 C 163.175,204.794 167.675,205.794 172,207.5C 172.671,206.748 173.504,206.414 174.5,206.5C 177.512,207.911 180.512,209.578 183.5,211.5C 184.167,210.833 184.833,210.167 185.5,209.5C 186.107,209.624 186.44,209.957 186.5,210.5C 190.676,212.184 194.676,214.35 198.5,217C 200.81,217.497 203.143,217.663 205.5,217.5C 205.5,218.5 205.5,219.5 205.5,220.5C 189.485,215.92 173.818,210.587 158.5,204.5 Z"/></g>
<g><path style="opacity:1" fill="#5a2209" d="M 206.5,110.5 C 206.5,128.833 206.5,147.167 206.5,165.5C 206.489,181.175 206.156,196.842 205.5,212.5C 205.5,213.5 205.5,214.5 205.5,215.5C 208.069,217.617 210.735,219.617 213.5,221.5C 210.833,221.167 208.167,220.833 205.5,220.5C 205.5,219.5 205.5,218.5 205.5,217.5C 203.143,217.663 200.81,217.497 198.5,217C 194.676,214.35 190.676,212.184 186.5,210.5C 187.338,210.158 187.672,209.492 187.5,208.5C 188.167,208.833 188.833,209.167 189.5,209.5C 189.369,210.239 189.536,210.906 190,211.5C 190.893,210.919 191.893,210.585 193,210.5C 195.717,211.739 198.551,212.573 201.5,213C 202.071,214.205 202.738,215.372 203.5,216.5C 204.466,214.604 204.799,212.604 204.5,210.5C 204.5,202.167 204.5,193.833 204.5,185.5C 204.809,167.833 205.142,150.166 205.5,132.5C 205.5,125.5 205.5,118.5 205.5,111.5C 205.5,110.833 205.833,110.5 206.5,110.5 Z"/></g>
<g><path style="opacity:1" fill="#713715" d="M 205.5,215.5 C 208.612,216.689 211.778,217.689 215,218.5C 215.333,218.167 215.667,217.833 216,217.5C 218.506,219.009 221.006,220.509 223.5,222C 224.252,222.671 224.586,223.504 224.5,224.5C 220.951,223.321 217.284,222.321 213.5,221.5C 210.735,219.617 208.069,217.617 205.5,215.5 Z"/></g>
<g><path style="opacity:1" fill="#dfc6b3" d="M 242.5,197.5 C 246.248,207.549 251.582,216.549 258.5,224.5C 259.684,226.463 260.517,228.463 261,230.5C 257.667,228.333 254.834,225.666 252.5,222.5C 249.832,217.83 247.165,213.163 244.5,208.5C 243.172,204.851 241.839,201.185 240.5,197.5C 240.667,196.833 240.833,196.167 241,195.5C 241.278,196.416 241.778,197.082 242.5,197.5 Z"/></g>
<g><path style="opacity:1" fill="#8d4c20" d="M 219.5,172.5 C 219.254,181.205 218.587,189.872 217.5,198.5C 215.826,201.554 215.326,204.888 216,208.5C 216.29,206.956 216.956,205.623 218,204.5C 218.167,205.333 218.333,206.167 218.5,207C 216.928,209.919 216.261,213.085 216.5,216.5C 219.206,216.575 221.873,216.908 224.5,217.5C 224.335,214.15 224.502,210.817 225,207.5C 226.103,211.356 226.936,215.356 227.5,219.5C 227.833,217.5 228.167,215.5 228.5,213.5C 227.411,206.449 226.077,199.449 224.5,192.5C 224.232,190.901 224.566,189.568 225.5,188.5C 226.75,188.577 227.583,189.244 228,190.5C 229.109,199.796 229.776,209.13 230,218.5C 230.342,220.619 231.175,220.953 232.5,219.5C 233.122,221.335 234.456,222.502 236.5,223C 238.101,223.273 239.601,223.773 241,224.5C 242.773,221.422 243.94,218.089 244.5,214.5C 243.884,212.279 242.717,211.612 241,212.5C 240.502,209.518 240.335,206.518 240.5,203.5C 241.485,205.506 242.818,207.173 244.5,208.5C 247.165,213.163 249.832,217.83 252.5,222.5C 250.271,221.945 248.605,220.611 247.5,218.5C 244.857,221.266 243.857,224.599 244.5,228.5C 244.53,229.497 244.03,230.164 243,230.5C 238.896,229.712 235.229,228.046 232,225.5C 231.667,225.833 231.333,226.167 231,226.5C 229.963,222.099 227.796,221.432 224.5,224.5C 224.586,223.504 224.252,222.671 223.5,222C 221.006,220.509 218.506,219.009 216,217.5C 215.667,217.833 215.333,218.167 215,218.5C 211.778,217.689 208.612,216.689 205.5,215.5C 205.5,214.5 205.5,213.5 205.5,212.5C 208.698,213.787 212.031,214.453 215.5,214.5C 215.66,212.801 215.494,211.134 215,209.5C 214.667,210.5 214.333,211.5 214,212.5C 212.088,202.139 212.088,191.806 214,181.5C 214.93,186.799 215.597,192.133 216,197.5C 216.394,188.769 217.561,180.436 219.5,172.5 Z"/></g>
<g><path style="opacity:1" fill="#49220d" d="M 205.5,220.5 C 208.167,220.833 210.833,221.167 213.5,221.5C 217.284,222.321 220.951,223.321 224.5,224.5C 224.5,225.5 224.5,226.5 224.5,227.5C 217.861,225.734 211.527,223.401 205.5,220.5 Z"/></g>
<g><path style="opacity:1" fill="#602f12" d="M 244.5,228.5 C 246.048,228.821 246.715,229.821 246.5,231.5C 245.305,231.678 244.138,232.011 243,232.5C 237.348,230.084 231.514,228.417 225.5,227.5C 225.167,227.5 224.833,227.5 224.5,227.5C 224.5,226.5 224.5,225.5 224.5,224.5C 227.796,221.432 229.963,222.099 231,226.5C 231.333,226.167 231.667,225.833 232,225.5C 235.229,228.046 238.896,229.712 243,230.5C 244.03,230.164 244.53,229.497 244.5,228.5 Z"/></g>
<g><path style="opacity:1" fill="#7e3b15" d="M 252.5,222.5 C 254.834,225.666 257.667,228.333 261,230.5C 260.517,228.463 259.684,226.463 258.5,224.5C 258.5,223.833 258.5,223.167 258.5,222.5C 259.708,223.234 261.041,223.567 262.5,223.5C 263.167,223.5 263.5,223.833 263.5,224.5C 264.106,228.422 265.106,232.255 266.5,236C 266.167,236.5 265.833,237 265.5,237.5C 262.176,236.368 258.843,235.368 255.5,234.5C 255.631,233.761 255.464,233.094 255,232.5C 253.601,232.501 252.101,232.835 250.5,233.5C 249.378,232.37 248.044,231.703 246.5,231.5C 246.715,229.821 246.048,228.821 244.5,228.5C 243.857,224.599 244.857,221.266 247.5,218.5C 248.605,220.611 250.271,221.945 252.5,222.5 Z"/></g>
<g><path style="opacity:1" fill="#60250b" d="M 263.5,224.5 C 265.878,226.878 267.878,229.545 269.5,232.5C 269.5,234.833 269.5,237.167 269.5,239.5C 263.816,240.165 259.15,238.498 255.5,234.5C 258.843,235.368 262.176,236.368 265.5,237.5C 265.833,237 266.167,236.5 266.5,236C 265.106,232.255 264.106,228.422 263.5,224.5 Z"/></g>
<g><path style="opacity:0.98" fill="#2c1308" d="M 270.5,233.5 C 271.833,234.167 272.833,235.167 273.5,236.5C 272.883,236.611 272.383,236.944 272,237.5C 271.505,239.473 271.338,241.473 271.5,243.5C 270.209,243.737 269.209,243.404 268.5,242.5C 270.388,240.012 271.055,237.012 270.5,233.5 Z"/></g>
<g><path style="opacity:1" fill="#461e0a" d="M 225.5,227.5 C 231.514,228.417 237.348,230.084 243,232.5C 244.138,232.011 245.305,231.678 246.5,231.5C 248.044,231.703 249.378,232.37 250.5,233.5C 252.101,232.835 253.601,232.501 255,232.5C 255.464,233.094 255.631,233.761 255.5,234.5C 259.15,238.498 263.816,240.165 269.5,239.5C 269.5,237.167 269.5,234.833 269.5,232.5C 270.167,232.5 270.5,232.833 270.5,233.5C 271.055,237.012 270.388,240.012 268.5,242.5C 263.226,241.855 258.56,239.855 254.5,236.5C 253.707,236.931 252.873,237.265 252,237.5C 242.951,234.433 234.118,231.099 225.5,227.5 Z"/></g>
<g><path style="opacity:1" fill="#451b0a" d="M 273.5,236.5 C 276.963,240.464 280.63,244.298 284.5,248C 279.853,247.396 275.52,245.896 271.5,243.5C 271.338,241.473 271.505,239.473 272,237.5C 272.383,236.944 272.883,236.611 273.5,236.5 Z"/></g>
</svg>
