<?xml version="1.0" encoding="UTF-8"?>
<!DOCTYPE svg PUBLIC "-//W3C//DTD SVG 1.1//EN" "http://www.w3.org/Graphics/SVG/1.1/DTD/svg11.dtd">
<svg xmlns="http://www.w3.org/2000/svg" version="1.1" width="64px" height="64px" style="shape-rendering:geometricPrecision; text-rendering:geometricPrecision; image-rendering:optimizeQuality; fill-rule:evenodd; clip-rule:evenodd" xmlns:xlink="http://www.w3.org/1999/xlink">
<g><path style="opacity:0.923" fill="#ff5363" d="M 18.5,0.5 C 20.8568,0.336688 23.1902,0.503354 25.5,1C 29.5,6.33333 29.5,11.6667 25.5,17C 21.6978,19.0349 18.5311,18.2016 16,14.5C 14.8058,9.36858 15.6391,4.70191 18.5,0.5 Z"/></g>
<g><path style="opacity:0.924" fill="#ff5363" d="M 37.5,0.5 C 39.8568,0.336688 42.1902,0.503354 44.5,1C 45.7014,1.90252 46.5348,3.06919 47,4.5C 47.6667,7.83333 47.6667,11.1667 47,14.5C 42.4913,19.9943 38.4913,19.661 35,13.5C 33.8423,8.69348 34.6757,4.36015 37.5,0.5 Z"/></g>
<g><path style="opacity:0.89" fill="#ff5364" d="M 56.5,11.5 C 61.2088,11.7262 63.2088,14.2262 62.5,19C 62.1559,26.7137 58.6559,28.8804 52,25.5C 50.3085,19.6102 51.8085,14.9436 56.5,11.5 Z"/></g>
<g><path style="opacity:0.926" fill="#ff5263" d="M 3.5,11.5 C 7.08975,11.5441 9.58975,13.2108 11,16.5C 12.0234,20.3169 11.5234,23.8169 9.5,27C 5.69463,28.1734 2.8613,27.0067 1,23.5C 0.333333,20.5 0.333333,17.5 1,14.5C 1.69794,13.3094 2.53128,12.3094 3.5,11.5 Z"/></g>
<g><path style="opacity:1" fill="#fb7975" d="M 45.5,24.5 C 45.7645,38.7175 39.0979,47.5508 25.5,51C 21.7789,51.6781 18.1122,51.5114 14.5,50.5C 7.5111,41.7346 7.84443,33.2346 15.5,25C 21.287,22.708 26.6204,23.5414 31.5,27.5C 35.7931,23.9398 40.4598,22.9398 45.5,24.5 Z"/></g>
<g><path style="opacity:0.949" fill="#fe5364" d="M 45.5,24.5 C 50.9237,26.9937 53.5904,31.327 53.5,37.5C 51.4915,52.3439 43.1581,60.5106 28.5,62C 22.3626,59.7896 17.6959,55.9563 14.5,50.5C 18.1122,51.5114 21.7789,51.6781 25.5,51C 39.0979,47.5508 45.7645,38.7175 45.5,24.5 Z"/></g>
</svg>
