<svg xmlns="http://www.w3.org/2000/svg" width="27" height="24.132" viewBox="0 0 27 24.132">
  <g id="heart" transform="translate(0.5 0.5)">
    <path id="heart_3_" data-name="heart(3)" d="M23.938,2.264A6.991,6.991,0,0,0,18.737,0a6.541,6.541,0,0,0-4.085,1.41A8.358,8.358,0,0,0,13,3.135,8.354,8.354,0,0,0,11.349,1.41,6.54,6.54,0,0,0,7.264,0a6.992,6.992,0,0,0-5.2,2.264A8.127,8.127,0,0,0,0,7.814a9.677,9.677,0,0,0,2.579,6.335,54.988,54.988,0,0,0,6.455,6.059c.894.762,1.908,1.626,2.961,2.547a1.526,1.526,0,0,0,2.01,0c1.053-.921,2.067-1.785,2.962-2.548a54.957,54.957,0,0,0,6.455-6.058A9.676,9.676,0,0,0,26,7.814a8.126,8.126,0,0,0-2.063-5.55Zm0,0" transform="translate(0)" fill="#fff" stroke="#fff" stroke-width="1"/>
  </g>
</svg>
